<svg xmlns="http://www.w3.org/2000/svg" viewBox="0 0 300 300" preserveAspectRatio="xMidYMid meet">
  <g stroke="#000" transform="matrix(.75433 -.08135 0 .75534 -1124.176 -259.24)">
    <path fill="none" d="M1649.474 644.057l12.72 2.062 26.467 1.718 50.186-.344 32.312-1.375-.688-13.063-33.686 1.72h-43.998l-25.437-.69-17.532-1.717zM1649.818 631.682l46.405-8.25 28.186 1.032 46.404 7.906"/>
    <path fill="none" d="M1654.63 645.088l.688 3.437 14.093 2.407 22 1.375h29.906l19.25-1.375 25.78-1.72-.688-3.093"/>
    <ellipse cx="1590.135" cy="1659.715" fill="none" stroke-width=".802" ry="16.499" rx="8.25" transform="rotate(-7.906 -4984.902 1163.803)"/>
    <ellipse cx="1590.135" cy="1659.715" fill="none" stroke-width=".802" ry="16.499" rx="8.25" transform="scale(1.44037) rotate(-7.906 -6893.25 4573.2)"/>
    <path fill="none" d="M1602.726 727.585l-1.375-38.498 1.72-2.407h3.093v35.405l.344 4.47zM1593.79 724.492l-11-25.78h-2.407l-2.062-4.126-1.374.344 1.718 5.5 13.406 25.78zM1585.732 735.49l-6.38-2.75-7.562-3.78-1.032 6.188-1.718 4.468 6.874 6.53 8.696 1.346M1587.86 761.83l-6.102 15.597 2.062 5.844.344 6.188 5.5 6.875h7.562l3.094-2.062M1600.406 773.474l-1.375 10.656 3.01 17.015 6.186 3.78 2.75 4.814 13.75-1.032-1.376-20.968-.343-.344M1609.6 772.615l16.5 17.187 9.625-3.094 3.78-8.25 5.157-5.5-20.28-21.31-7.906 2.06-.344 9.97zM1613.726 753.71l11.687-7.563 1.718-9.968 1.72-8.938 3.438-8.938-17.53 13.062-2.407 9.625.344 6.876z"/>
    <path fill="none" d="M1606.42 724.75l4.556 2.835 3.437 5.844M1594.047 723.976l4.554-.86 3.954 1.032M1620.257 749.24l.086 3.696M1678.263 703.438l26.897 39.96 106.56-13.063 7.905-26.468-8.937-16.5-17.875-11-94.87 10.657z"/>
    <path fill="none" d="M1705.676 743.225l13.92-25.952 100.373-13.406M1719.51 717.273l-9.538-17.53-11.687-12.03"/>
    <path fill="none" d="M1678.35 703.438l-2.75 4.554 1.374 12.72 21.655 30.248 5.5-2.407 1.718-5.156M1704.3 748.553l99.857-11.343 7.218-6.53M1671.99 651.275l.515 5.844 7.562 5.155 14.437 5.156 12.375 1.376 13.405 1.375s8.937-.343 10.312-.343 12.03-1.375 12.03-1.375l4.813-2.406 2.062-15.812M1628.506 728.96l5.844 6.188 3.78 7.562.345 8.25-1.03 7.562-2.064 4.468M1606.507 710.055l9.625 7.906 7.562 6.188M1588.87 729.09l-4.706-6.317.688-6.187 1.117-2.15M1589.062 712.46l3.696-3.78 1.375-5.5 3.437-2.75h3.78M1606.42 699.055l16.587-.172M1643.803 773.99s2.964 4.423 3.953 6.875c.707 1.752.99 3.65 1.375 5.5.427 2.047.86 4.103 1.032 6.187.19 2.284.505 4.64 0 6.875-.587 2.6-.723 4.766-2.578 7.218-.857 1.132-1.903 2.217-4.297 3.438-1.744.89-3.542 2.038-5.5 2.062-2.79.034-5.665-1.087-7.906-2.75-1.25-.93-1.812-2.536-2.75-3.78-.784-1.045-2.405-3.095-2.405-3.095M1698.63 751.045l-12.72 9.54-15.467 7.218v.343M1744.69 746.49c-2.614.15-5.602 1.035-7.218 3.095-.86 1.096-.996 2.765-.688 4.124.31 1.364 1.604 2.29 2.406 3.437 1.604 2.29 3.482 4.414 4.813 6.875.88 1.628 1.502 3.39 2.062 5.156.748 2.357 1.375 5.843 1.72 7.218.343 1.375 1.054 4.097 1.03 6.187-.028 2.45-.776 4.844-1.375 7.22-.558 2.213-3.177 4.538-2.062 6.53 2.075 3.71 12.374 3.094 12.374 3.094s1.24-5.252 1.72-7.906c.43-2.392.858-4.793 1.03-7.218.17-2.4 0-5.843 0-7.218s-.724-7.2-1.72-10.656c-.893-3.11-2.354-6.034-3.78-8.937-.927-1.888-1.893-3.772-3.093-5.5-1.115-1.602-2.15-3.4-3.783-4.468-1-.655-2.243-1.1-3.437-1.03zM1774.252 746.835c-.435-.703-.665-1.64-1.375-2.063-2.215-1.72-5.666-1.55-7.563-1.03-1.856.58-3.38 2.327-4.124 4.124-.395.953 0 2.062 0 3.094 1.426 4.667 3.202 5.56 4.812 8.25.74 1.336.828 2.953 1.03 4.468.382 2.84.345 7.218.345 8.593 0 1.376-.133 6.42 0 9.626.115 2.757-1.44 6.493.687 8.25 3.29 2.714 9.814 1.747 12.72-1.375 2.185-2.35.342-6.414.342-9.624 0-3.21-.134-6.42-.343-9.625-.158-2.41-.246-4.84-.688-7.217-.544-2.925-1.378-5.802-2.406-8.594-.568-1.54-1.312-3.01-2.063-4.47-.424-.82-.89-1.62-1.375-2.405zM1781.126 746.835c1.187 2.305 4.235 3.236 5.5 5.5 1.207 2.16 1.72 4.745 1.72 7.218s-1.47 4.758-1.72 7.218c-.37 3.65-.89 7.547.344 11 .633 1.77 1.566 4.3 3.437 4.47 4.606.42 10.757-4.678 10.312-9.28-.13-1.33-2.988-.806-3.438-2.064-.574-1.603 1.34-3.15 1.72-4.812.485-2.134.51-4.35.686-6.53.166-2.06.618-4.14.344-6.188-.29-2.155-.964-4.312-2.062-6.188-.86-1.47-2.436-2.403-3.438-3.78-1.71-.995-4.16-2.17-5.843-2.063-1.49.114-3.097-.245-4.47.344-1.417.606-2.928 1.637-3.437 3.092-.23.658.025 1.443.343 2.063zM1726.128 757.49c-.792-1.152-2.092-2.022-3.437-2.406-1.986-.566-4.204-.235-6.187.344-2.02.59-2.62 1.5-3.437 3.437-.69 1.64-1.03 3.068-.687 4.813.69 3.514.975 7.097 1.374 10.656.27 2.402-.688 5.843.687 7.218 1.376 1.375.497 3.82 1.72 5.156 1.94 2.12 5.275 2.28 7.906 3.438 2.066.908 3.985 3.247 6.187 2.75 4.122-.93 9.032-5.473 8.25-9.625-.36-1.913-3.386-1.936-5.156-2.75-2.01-.922-4.64-.823-6.188-2.405-.938-.96-1.176-2.455-1.376-3.78-.34-2.27.178-4.588.344-6.876.175-2.412.87-4.81.688-7.22-.07-.942-.152-1.97-.688-2.75z"/>
    <path fill="none" d="M1659.27 795.216l15.297-3.695 18.562-5.5 13.405 6.188 13.75-1.375 5.5-.344 78.028-14.094 1.375-12.718-2.406-10.312-2.063-.344M1630.225 706.96l3.094-5.155 5.5-3.094 6.53-.686 4.468 1.375.688 1.374-2.063 4.125-3.437 3.092.687 1.375 1.72 3.78-1.72.345-2.062-2.75-1.374-2.062-6.875.687h-3.092z"/>
    <path fill="none" d="M1648.787 698.71l-5.156-7.905-5.843-2.406-6.53 1.718-5.157 3.78-2.406 3.782-1.375 2.75 4.468 4.812 2.75 3.438.687-.688"/>
    <ellipse cx="1716.631" cy="1601.107" stroke-width=".802" ry="4.64" rx="6.187" transform="rotate(21.395 4103.7 1164.903)"/>
    <ellipse cx="1716.631" cy="1601.107" stroke-width=".802" ry="4.64" rx="6.187" transform="rotate(21.395 4124.89 1229.687)"/>
    <ellipse cx="1716.631" cy="1601.107" stroke-width=".802" ry="4.64" rx="6.187" transform="rotate(21.395 4143.116 1291.26)"/>
    <ellipse cx="1716.631" cy="1601.107" stroke-width=".802" ry="4.64" rx="6.187" transform="rotate(21.395 4162.648 1349.762)"/>
    <ellipse cx="1716.631" cy="1601.107" fill="#e6e6e6" stroke-width=".802" ry="4.64" rx="6.187" transform="rotate(21.395 5251.726 386.236) scale(1.2146)"/>
    <path fill="none" stroke-width=".9741092" d="M1737.938 694.492c-1.136 2.898-5.19 4.107-9.054 2.592-3.864-1.514-5.99-4.747-4.855-7.645"/>
    <path fill="none" d="M1727.503 679.462l-3.78 11M1741.94 684.618l-4.125 10.312"/>
    <path fill="none" stroke-width="2.8" d="M1747.784 695.274s2.568-3.757 3.437-5.844c.866-2.078 2.243-4.34 1.72-6.53-.32-1.343-1.478-2.56-2.75-3.094-8.673-3.644-18.837.34-28.187 1.375-6.01.665-11.984 1.727-17.874 3.094-4.77 1.107-9.364 2.868-14.094 4.125-5.238 1.39-10.43 3.146-15.812 3.78-4.552.537-9.32 1.177-13.75 0-4.464-1.185-8.076-4.488-12.03-6.875-3.838-2.315-7.652-4.678-11.344-7.218-3.644-2.507-6.537-6.296-10.656-7.906-3.005-1.173-6.732-2.46-9.625-1.03-2.767 1.366-4.65 4.825-4.813 7.906-.24 4.555 3.356 8.55 5.844 12.374 1.817 2.792 6.532 7.563 6.532 7.563"/>
    <path fill="none" stroke-width="2.7" d="M1722.347 699.055c-2.734-2.896-5.73-5.546-8.937-7.906-2.382-1.754-4.88-3.347-7.22-5.157-2.17-1.682-4.27-3.587-6.873-4.47-1.762-.595-3.672-.683-5.514-.427-1.843.257-3.625.847-5.337 1.577-3.422 1.458-6.6 3.48-10.117 4.695-4.504 1.556-9.445 1.72-14.095.687-3.978-.883-7.718-2.606-11.343-4.468-4.08-2.095-8.076-4.392-11.687-7.22-2.505-1.96-4.81-4.165-7.345-6.086-2.535-1.92-5.354-3.575-8.467-4.224-1.75-.365-3.593-.4-5.314.087-1.722.487-3.316 1.52-4.312 3.007-.738 1.1-1.13 2.416-1.21 3.74-.078 1.323.15 2.654.574 3.91.85 2.51 2.453 4.688 4.073 6.787 2.538 3.287 5.175 6.497 7.906 9.624"/>
    <path fill="none" stroke-width="2.4" d="M1771.845 692.868c1.165-1.94 2.09-4.023 2.75-6.188.476-1.56.81-3.248.344-4.812-.312-1.04-.967-1.962-1.787-2.674-.82-.713-1.8-1.225-2.824-1.588-2.05-.728-4.25-.872-6.39-1.238-3.59-.613-7.055-1.86-10.656-2.406-4.887-.74-9.866-.172-14.78.344-7.392.775-14.844 1.434-22 3.437-3.84 1.075-7.56 2.527-11.344 3.78-4.383 1.454-8.857 2.644-13.406 3.44-6.912 1.207-13.997 1.498-20.968.686-5.512-.643-11.025-2.005-15.812-4.813-5.21-3.055-9.308-7.66-14.093-11.344-5.104-3.93-10.997-6.803-17.186-8.593-1.657-.48-3.368-.885-5.09-.778-.86.054-1.717.238-2.504.59-.786.355-1.5.882-2.03 1.563-.707.907-1.062 2.062-1.09 3.212-.028 1.15.258 2.293.73 3.342.943 2.096 2.582 3.785 4.14 5.476 4.714 5.11 8.976 10.64 12.72 16.5"/>
    <path fill="none" stroke-width="2.4" d="M1793.845 690.462c1.258-2.8 1.258-6.138 0-8.938-1.002-2.227-2.74-4.07-4.747-5.462-2.007-1.392-4.28-2.355-6.597-3.13-6.734-2.26-13.877-2.996-20.967-3.44-5.492-.342-11-.517-16.5-.342-6.833.217-13.675.983-20.28 2.75-5.567 1.49-10.928 3.68-16.5 5.156-3.28.87-6.622 1.488-9.968 2.062-7.158 1.228-14.394 2.256-21.655 2.063-4.398-.117-8.786-.684-13.062-1.718-5.067-1.226-9.994-3.118-14.437-5.844-4.033-2.474-7.65-5.626-10.655-9.28-1.477-1.795-2.81-3.714-4.437-5.374-1.626-1.66-3.603-3.076-5.875-3.564-1.07-.23-2.186-.246-3.255-.02-1.07.228-2.088.7-2.933 1.395-1.39 1.143-2.254 2.844-2.596 4.61-.342 1.768-.193 3.6.19 5.36 1.394 6.422 5.734 11.78 10.31 16.498 1.78 1.832 3.614 3.61 5.5 5.328"/>
    <path fill="none" d="M1672.247 655.142l-14.523.946-6.187 3.78-3.78 5.844-.345 5.5 3.094 19.25c-1.94.22-3.892.334-5.844.343h-.515"/>
    <path fill="none" d="M1672.16 657.463l-4.467 4.124 6.874 2.75c2.06.36 4.123.704 6.188 1.032 2.288.362 4.58.706 6.874 1.03l2.062 2.75-.688 5.843c-5.51.454-11.013 1.027-16.5 1.72-2.523.317-5.044.66-7.56 1.03l-.69.688M1662.88 661.93l-6.875 3.095-.687 4.812 1.03 5.5 1.032 2.062"/>
    <path fill="none" d="M1672.505 665.37l-2.062 4.123 1.374 4.813 1.375 3.093M1657.724 660.9l-5.843 3.437-1.03 5.844.687 2.75.687 1.72M1747.096 666.744c6.766 1.81 13.527 3.644 20.28 5.5 2.414.662 4.827 1.328 7.22 2.062 3.014.924 5.996 1.956 8.937 3.093M1637.787 765.225l9.28.172 7.263 11.536c2.662 4.294 4.31 9.213 4.77 14.244.292 3.204.11 6.44-.345 9.625-.288 2.022-.702 4.07-1.718 5.843-1.23 2.145-3.274 3.735-5.5 4.812-4.35 2.106-9.56 2.36-14.093.688M1662.88 768.49l-9.968-13.75 2.062-1.03h11.687l.69-3.094.686-25.78-1.718-2.75h-13.406l-3.78 2.406-3.44-2.407.69-4.468-6.188-7.22-17.187.69-.344 12.373"/>
    <path fill="none" d="M1653.256 755.084l-4.813-3.093-1.718 2.75-1.032 2.407-.343 2.406.687 3.094M1631.084 722.43l7.047 9.968 5.5 4.468 5.5 2.75 4.813 1.375h3.094M1649.13 724.406l2.75 4.898 7.22 1.03-.345 4.814-.343 2.062"/>
    <circle cx="1630.324" cy="1695.641" r="2.795" fill="none" transform="matrix(1.006 .2416 -.09848 .97037 165.598 -1241.826)"/>
    <ellipse cx="1658.945" cy="1677.715" stroke-width=".754" ry="2.127" rx="2.613" transform="rotate(-34.524 -410.862 2366.835) scale(1.3262)"/>
    <ellipse cx="1658.945" cy="1677.715" stroke-width=".754" ry="2.127" rx="2.613" transform="matrix(.86385 -.59424 .59424 .86385 -773.7 275.26)"/>
    <path fill="none" d="M1792.126 739.1l1.03 3.954M1651.193 692.524l8.25 2.406 5.5 1.03 6.874 4.47 3.867 7.304"/>
    <path fill="none" d="M1658.755 715.21l9.28-6.187 5.5-6.187M1651.193 707.305l4.47-8.594 3.436-3.78M1657.037 771.928l-7.22-8.938M1660.56 765.053l9.625 2.75M1715.6 708.585l99.17-12.64M1717.546 712.96l99.654-13.125"/>
    <path fill="#e6e6e6" stroke-width=".043" d="M1731.647 697.21c-1.256-.13-2.313-.44-3.455-1.01-2.168-1.078-3.593-2.742-3.894-4.545-.145-.866-.166-.777 1.014-4.215.572-1.666 1.052-3.042 1.066-3.058.014-.016.307-.06.65-.097.342-.037.68-.078.752-.09.115-.018.142 0 .257.184.227.36.78 1.018 1.148 1.364 1.75 1.65 4.038 2.635 6.428 2.767 1.56.087 2.844-.164 4.082-.796.394-.202.528-.253.513-.198-.036.13-2.615 6.558-2.676 6.67-.032.06-.108.21-.168.337-.77 1.62-2.605 2.626-4.9 2.688-.355.01-.723.01-.817 0z"/>
    <path fill="#ececec" stroke-width=".122" d="M1678.237 633.844l-10.39-.286-7.718-.736c-4.246-.405-7.873-.775-8.062-.822-.237-.06 6.607-1.317 22.058-4.054l22.4-3.967 13.895.52 13.896.522 22.018 3.75c19.902 3.39 21.947 3.758 21.288 3.84-.4.05-7.292.42-15.313.823l-14.584.73-24.55-.017c-22.473-.016-25.427-.042-34.94-.304z"/>
    <path fill="#ccc" stroke-width=".344" d="M1674.998 646.34c-10.182-.68-19.285-1.716-24.137-2.75-.757-.16-.76-.194-.553-5.227.115-2.787.244-5.11.287-5.164.043-.054 4.005.287 8.804.757 11.02 1.08 28.67 1.58 55.818 1.58 16.803 0 22.632-.14 37.086-.89 12.804-.664 17.212-.79 17.394-.494.247.4.82 10.988.606 11.2-.064.065-7.535.424-16.602.8-10.963.452-24.89.733-41.578.836-23.602.145-25.808.107-37.124-.65z"/>
    <path fill="#999" stroke-width=".344" d="M1679.982 650.96c-8.418-.55-20.276-2.03-23.46-2.93-.587-.167-1.21-1.693-.84-2.062.102-.103 1.783.062 3.735.365 1.953.303 9.583.93 16.956 1.396 13.34.84 13.547.842 42.452.503 15.975-.188 31.443-.48 34.374-.653 2.93-.17 6.817-.323 8.638-.337 3.034-.023 3.327.032 3.49.662.1.378.093.688-.014.688-.535 0-31.74 2.148-37.552 2.585-9.74.732-34.97.616-47.78-.22zM1708.205 739.966c.747-1.37 3.638-6.746 6.425-11.945 2.788-5.198 5.21-9.607 5.385-9.796.26-.282 98.24-13.63 98.506-13.42.065.05-7.124 24.52-7.298 24.84-.037.07-103.625 12.814-104.152 12.814-.123 0 .388-1.122 1.135-2.492z"/>
    <path fill="#b3b3b3" stroke-width=".344" d="M1692.533 723.367c-7.036-10.454-12.876-19.223-12.977-19.487-.12-.316 2.948-3.09 8.99-8.12l9.174-7.642 5.87 6.08 5.867 6.08 4.562 8.37c2.51 4.602 4.562 8.516 4.562 8.697 0 .18-2.983 5.886-6.628 12.68l-6.63 12.35-12.79-19.008zM1719.12 715.074l-.822-1.47 1.087-.188c.598-.103 22.28-2.968 48.18-6.366 25.9-3.398 47.64-6.265 48.31-6.37 1.134-.18 1.256-.11 1.818 1.07.332.694.507 1.36.39 1.478-.118.12-22.248 3.163-49.178 6.766l-48.964 6.55-.82-1.47zM1716.754 710.748c-.553-.93-.72-1.492-.465-1.546.848-.18 97.582-12.46 98.153-12.46.762 0 1.984 2.355 1.33 2.565-.382.124-97.382 12.903-97.93 12.902-.122 0-.612-.658-1.09-1.462z"/>
    <path fill="#999" stroke-width=".344" d="M1712.905 703.645c-2.23-4.14-2.576-4.578-8.037-10.168l-5.707-5.84 1.548-.235c3.813-.58 4.06-.503 8.284 2.512 3.247 2.318 5.777 4.246 7.658 5.835.166.14-.027.673-.43 1.184-1.428 1.816-.728 4.823 1.6 6.865 3.008 2.64 8.738 2.327 10.23-.558.748-1.447.51-3.665-.553-5.158-.73-1.024-.74-1.1-.132-.842 4.247 1.795 8.74 1.237 10.538-1.308.934-1.322 4.74-11.132 4.74-12.215 0-.977.018-.985 3.032-1.37 3.96-.51 4.706-.492 5.21.116.786.946.447 2.824-1.098 6.085l-1.52 3.208-1.746-.117c-5.05-.34-7.674 4.055-4.652 7.79 3.357 4.146 10.828 3.8 11.643-.543.3-1.588-.328-3.52-1.507-4.65l-.968-.927 1.468-2.998c1.8-3.674 2.423-6.19 1.933-7.786l-.35-1.142 8.575-.946 8.577-.945.872.804c1.16 1.07 1.873 2.824 1.62 3.986-.11.518-.52 1.882-.906 3.03l-.703 2.087-1.797-.15c-5.09-.42-7.787 4.004-4.737 7.773 3.33 4.113 10.828 3.802 11.632-.482.318-1.696-.145-3.174-1.448-4.616l-1.176-1.3.687-1.744c1.136-2.878 1.458-5.71.842-7.384-.29-.785-.603-1.67-.698-1.968-.148-.46.65-.628 5.437-1.135 3.086-.327 6.097-.678 6.692-.78.9-.154 1.317.028 2.482 1.08 1.53 1.383 2.97 4.08 3.257 6.103.184 1.288.184 1.29-1.083 1.296-1.887.01-4.045 1.122-4.72 2.43-1.91 3.688 2.043 8.357 7.033 8.31 1.1-.01 2.368-.21 2.82-.442 3.373-1.743 3.602-5.418.506-8.143-1.363-1.2-1.534-1.53-1.854-3.584-.402-2.582-1.543-5.47-2.507-6.34-1.87-1.694.154-.63 8.038 4.225l8.694 5.354 1.966 3.7 1.967 3.702-1.293.2c-.712.112-22.64 2.908-48.73 6.214-26.09 3.306-47.763 6.065-48.164 6.132-.618.103-1.08-.534-3.058-4.205zM1688.23 735.22l-10.587-14.788-.668-6.04-.67-6.04.944-1.68c.518-.925 1.02-1.674 1.115-1.666.095.01 6.094 8.83 13.333 19.605l13.162 19.59-.593 1.884c-.552 1.75-.72 1.94-2.39 2.705-.99.45-2.082.91-2.43 1.02-.514.164-2.572-2.513-11.217-14.59zM1705.802 745.854c.31-.968.72-1.817.914-1.887.448-.163 101.17-12.51 102.053-12.51.47 0-.01.616-1.68 2.15-1.286 1.18-2.606 2.338-2.933 2.57-.484.344-95.795 11.437-98.264 11.437-.63 0-.633-.063-.09-1.76z"/>
    <path fill="#999" stroke-width=".344" d="M1659.703 791.498c-.258-3.652-1.35-7.94-2.845-11.178-.643-1.39-2.988-5.43-5.213-8.975l-4.045-6.446-4.978-.237c-4.342-.206-5.074-.326-5.724-.936l-.745-.7.968-2.135c1.4-3.087 2.148-8.907 1.848-14.384l-.232-4.222-1.984-3.953c-1.57-3.13-2.425-4.383-4.102-6.015-1.164-1.135-2.416-2.475-2.782-2.98-.662-.914-.66-.924.238-3.352l.903-2.434 3.35 4.726c2.647 3.732 3.923 5.187 6.06 6.914 4.468 3.61 11.342 6.578 15.228 6.578 1.227 0 1.676-.202 2.68-1.206 1.05-1.048 1.184-1.373 1.043-2.492-.09-.707-.01-2.8.18-4.65.186-1.852.273-3.433.192-3.514-.12-.12-6.715-1.2-7.32-1.2-.132 0-1.427-2.28-2.167-3.814-.054-.112.527-.618 1.29-1.124l1.39-.92 6.595.093 6.594.093.64 1.094c.61 1.046.62 1.656.25 13.992-.214 7.095-.503 13.332-.644 13.86l-.256.96-5.99.193c-3.297.106-6.316.31-6.712.455-.535.196-1.28-.093-2.92-1.133l-2.204-1.395-.59.768c-.968 1.258-2.58 4.797-2.828 6.204-.127.72-.06 2.135.15 3.143.328 1.583.473 4.385 1.068 4.23.584-.153.646-2.92.413-3.83-.524-2.043-.25-4.13.814-6.23.564-1.112 1.176-2.072 1.36-2.134.187-.062 1.17.47 2.187 1.183 1.385.97 2.823 2.633 5.713 6.608l3.862 5.313-1.262.43c-.693.234-1.685.93-2.204 1.545-.59.697-1.063.995-1.258.79-.173-.18-1.47-1.75-2.883-3.49-2.192-2.697-4.885-1.04-5.356-.688-.48.36 2.186-1.018 5.623 3.31 2.167 2.726 4.137 5.083 4.378 5.235 1.44.913 4.91-.176 5.79-1.82.65-1.217.565-3.238-.172-4.053-.358-.395-.552-.817-.432-.937.122-.12 1.732.215 3.58.746 1.848.53 3.703.942 4.122.913.42-.03 4.132-1.616 8.25-3.527 7.233-3.356 7.71-3.64 14.054-8.392 4.347-3.254 7.425-5.293 9.105-6.03l2.54-1.115 43.464-4.94c34.167-3.883 43.522-4.846 43.74-4.506.676 1.066.295 1.197-2.98 1.026-3.893-.204-5.76.35-7.375 2.19-1.94 2.21-1.232 4.378 2.366 7.245 2.378 1.896 3.353 3.62 3.923 6.936.342 1.992.288 2.515-.625 6.015-1.24 4.75-1.573 10.648-.775 13.69l.512 1.947-2.234.39c-1.23.213-2.28.342-2.338.285-.057-.057-.266-3.43-.465-7.493-.2-4.066-.61-8.706-.91-10.313-.85-4.515-2.762-9.853-4.928-13.758-2.306-4.157-3.183-4.802-6.898-5.068-2.77-.198-4.43.273-6.084 1.725-1.645 1.444-2.188 2.652-2.188 4.87 0 2.364 1.09 4.937 3.422 8.084.936 1.263 1.873 2.983 2.083 3.823.21.84.47 5.88.578 11.2.19 9.268.17 9.68-.45 9.863-.558.164-4.528.916-4.835.916-.06 0-.11-1.46-.11-3.248 0-4.015-.787-10.172-1.74-13.595-.902-3.25-4.514-11.096-6.58-14.298-3.416-5.293-5.165-6.512-8.953-6.24-1.68.12-2.917.453-4.306 1.163-2.585 1.323-3.513 2.712-3.513 5.258 0 1.92.033 1.982 3.363 6.394 4.673 6.192 5.438 7.94 7.5 17.138.948 4.236 1.198 6.007 1.062 7.54-.098 1.102-.27 2.095-.38 2.206-.25.25-8.863 1.853-9.035 1.682-.068-.068.035-.542.23-1.053.515-1.356.432-3.37-.175-4.237-.37-.53-1.726-1.124-4.554-1.997-7.423-2.29-7.464-2.334-7.464-7.697 0-1.995.223-5.53.496-7.857.397-3.39.413-4.55.08-5.844-.965-3.76-5.387-5.456-10.396-3.99-2.367.695-3.566 1.83-4.48 4.244-.81 2.14-.78 3.92.184 10.85.288 2.08.528 5.33.532 7.224.01 2.705.145 3.7.654 4.65.356.665.83 2.088 1.053 3.163.3 1.443.67 2.177 1.41 2.8.908.764 4.2 2.217 5.238 2.31.23.022-2.985.387-7.145.813l-7.562.775-6.628-3.047c-3.646-1.674-6.795-3.045-6.997-3.045-.203 0-4.8 1.3-10.215 2.89-5.416 1.59-12.553 3.534-15.862 4.32-3.307.788-6.262 1.502-6.564 1.586-.462.13-.583-.306-.753-2.722z"/>
    <path fill="#999" stroke-width=".344" d="M1665.66 765.785c-2.54-.723-4.81-1.51-5.048-1.75-.237-.24-1.82-2.368-3.518-4.73-2.097-2.915-2.956-4.373-2.68-4.548.222-.142 3.203-.26 6.623-.263l6.218-.01.403-2.32c.22-1.276.56-7.99.75-14.92l.347-12.6-.953-1.568-.952-1.57-7.19-.01-7.187-.01-1.64 1.05-1.638 1.052-1.414-.935c-1.186-.786-1.385-1.08-1.238-1.825.71-3.61.9-3.09-2.603-7.194-1.768-2.073-3.524-3.84-3.902-3.928-.393-.09-.153-.178.56-.205 1.164-.043 1.36.11 2.997 2.354 1.673 2.293 1.8 2.39 2.878 2.188.62-.115 1.265-.335 1.434-.488.174-.16-.186-1.397-.836-2.877l-1.14-2.598 1.452-1.244c.88-.754 1.93-2.193 2.665-3.65 1.07-2.127 1.166-2.52.812-3.373-.22-.53-.618-1.05-.884-1.15-.83-.32-4.946-6.875-4.495-7.162.22-.14 1.62-.256 3.11-.26l2.71-.01-.19-1.16-.188-1.163 2.954 1.854c3.783 2.377 6.53 3.25 10.91 3.473 6.274.318 12.917-.733 23.363-3.695 3.365-.955 6.162-1.692 6.215-1.64.053.055-3.673 3.238-8.282 7.075-6.78 5.645-8.558 7.305-9.315 8.694l-.935 1.718-1.48-2.68c-.814-1.472-1.56-2.91-1.655-3.193-.096-.283-1.805-1.564-3.798-2.845-3.17-2.038-3.98-2.397-6.447-2.863-1.552-.292-4.64-1.07-6.865-1.726-2.224-.657-4.196-1.1-4.383-.985-.95.587-.09 1.152 3.098 2.043 1.89.528 3.437 1.066 3.437 1.194 0 .13-.548.767-1.22 1.417-1.71 1.66-6.237 10.277-5.606 10.677.257.163.555.298.662.3.106 0 1.23-1.966 2.498-4.376 1.267-2.41 2.98-5.134 3.81-6.053l1.506-1.67 2.527.437c2.158.373 3.037.766 6.023 2.69 2.354 1.518 3.658 2.596 3.99 3.296.49 1.037.484 1.05-1.95 3.753-1.798 1.996-3.646 3.52-6.998 5.765-2.505 1.68-4.554 3.21-4.554 3.4 0 1.028 1.404.433 5.557-2.353 3.403-2.284 5.165-3.74 6.843-5.65l2.26-2.574.883 1.585c.754 1.352.994 2.572 1.632 8.273.41 3.68.845 6.85.964 7.047.12.197 4.913 6.917 10.652 14.93 5.74 8.016 10.31 14.686 10.158 14.822-.153.137-2.984 2.26-6.293 4.716-4.586 3.407-6.914 4.882-9.796 6.208-2.08.957-5.41 2.5-7.398 3.43l-3.616 1.692-4.615-1.315zM1674.412 679.698c-3.155-.306-7.6-.93-8.198-1.153-.564-.208 4.4-.975 6.48-1 .377 0 1.383-.16 2.233-.346.85-.186 4.507-.615 8.124-.954l6.577-.616.387-3.4.386-3.4-1.062-1.34c-.584-.738-.91-1.342-.725-1.342.186 0 1.63.46 3.21 1.022 2.496.89 4.39 1.186 14.556 2.283 6.427.693 13 1.272 14.608 1.287 1.607.014 2.613.088 2.235.162-.378.075-3.774 1.134-7.546 2.354-9.577 3.098-14.528 4.207-25.07 5.616-4.978.665-13.418 1.095-16.195.826zM1723.738 695.394c-.283-.162-1.21-.41-2.057-.55-1.15-.19-2.15-.75-3.952-2.218-1.326-1.08-3.695-2.902-5.263-4.048l-2.852-2.084 1.305-.2c3.307-.506 13.617-1.59 13.76-1.445.09.087-.258 1.422-.772 2.965-1.074 3.225-1.006 4.535.34 6.568.855 1.293.662 1.68-.508 1.01z"/>
    <path fill="#999" stroke-width=".086" d="M1701.47 680.932c-.236-.135-.71-.352-1.053-.483-.342-.132-.623-.264-.623-.294 0-.03.3-.102.666-.16 1.545-.245 5.095-.995 7.143-1.51 2.778-.698 3.48-.91 9.206-2.79 2.575-.846 5.332-1.733 6.125-1.972 6.888-2.074 14.563-3.175 23.307-3.343 3.31-.063 8.983.013 11.448.153l1.653.094 5.18 1.41c7.627 2.08 10.41 2.904 14.202 4.208 1.996.686 2.534.9 2.277.91-.118 0-1.823.192-3.788.415l-3.574.405-.38-.28c-.208-.154-.765-.472-1.238-.706-1.316-.654-2.64-1.032-4.812-1.376-3.76-.595-4.57-.756-7.616-1.514-5.324-1.324-6.2-1.48-9.475-1.678-2.882-.175-5.565 0-14.276.915-7.954.838-11.542 1.35-15.683 2.234-3.085.66-5.318 1.314-10.183 2.98-4.303 1.473-7.856 2.647-7.98 2.636-.053-.01-.29-.12-.527-.254z"/>
    <path fill="#999" stroke-width=".086" d="M1752.698 679.798c-.645-.654-1.56-1.204-2.648-1.59-1.822-.647-3.502-1.02-5.484-1.223-.98-.1-4.393-.104-5.414-.01-.724.07-.736.067-1.325-.23-.327-.164-.98-.424-1.452-.58l-.858-.28.378-.053c.71-.102 7.163-.737 8.37-.824 3.304-.237 5.86-.198 8.336.125 1.46.19 2.336.38 5.845 1.254 3.478.868 4.503 1.084 6.66 1.405 1.8.27 3.96.673 3.78.708-.314.06-15.5 1.744-15.627 1.732-.078-.01-.33-.205-.56-.438zM1741.85 680.615l-.436-.88h.78c.857 0 2.976.193 3.79.343.828.152 2.545.62 2.488.676-.03.03-1.432.207-3.118.397l-3.065.344-.44-.88zM1707.793 681.94c.09-.076 6.3-2.162 7.686-2.583 3.543-1.076 7.076-1.827 11.744-2.497 1.167-.168 2.168-.305 2.226-.305.057 0-.058.11-.257.242-.688.462-1.728 1.607-1.728 1.902 0 .05-.09.128-.202.17-.385.147-3.893.687-7.016 1.08-3.588.453-6.873.97-10.112 1.588-2.235.428-2.41.458-2.342.4zM1707.532 685.238l-.21-.16.34-.087c2.152-.552 8.395-1.6 13.143-2.203 1.702-.216 3.558-.465 4.125-.554.567-.088 1.04-.152 1.052-.14.06.055-.395 1.207-.5 1.26-.067.036-4.01.494-8.76 1.02-4.75.524-8.712.97-8.807.99-.095.02-.267-.037-.383-.125zM1676.033 684.803c-5.968-.242-11.233-1.187-15.637-2.805-2.435-.894-5.455-2.523-7.51-4.05-1.058-.787-2.777-2.18-2.738-2.22.02-.02.71.305 1.53.722 6.096 3.086 13.06 5 20.875 5.74.89.083 2.795.15 5.113.18 3.496.042 5.51-.025 8.207-.278.447-.042.326.03-2.247 1.33l-2.72 1.374-1.534.04c-.844.022-2.346.01-3.34-.033zM1664.82 691.37c-1.61-.105-3.5-.424-4.6-.776-.7-.224-2.175-.88-3.04-1.353-.957-.52-2.214-1.325-4.987-3.19l-2.045-1.374-.096-.51c-.053-.28-.087-.52-.076-.53.01-.01.56.274 1.223.63 1.605.866 5.32 2.642 6.67 3.188 5.01 2.03 8.924 2.775 13.552 2.58 3.737-.156 6.208-.77 10.455-2.597.367-.158.67-.223 1.05-.224 1.354-.01 5.386-.44 8-.865.867-.14 1.62-.252 1.677-.25.26.015-9.15 2.66-12.025 3.382-3.443.864-5.954 1.267-10.72 1.722-1.38.132-4.18.226-5.04.17zM1619.822 720.268c-1.276-1.045-4.69-3.847-7.59-6.226-2.898-2.38-5.324-4.348-5.392-4.374-.104-.04-.123-.793-.123-5.065v-5.018h1.526c.84 0 4.31-.037 7.712-.078 3.403-.04 6.2-.062 6.215-.048.015.014-.093.265-.24.557l-.27.53.978 1.047c3.074 3.29 3.754 4.057 5.16 5.815.85 1.063 1.578 1.97 1.62 2.015.044.05.304-.145.662-.5l.59-.585.666.78.668.78h1.775c1.536 0 4.017-.172 5.528-.385.277-.04.322-.022.322.12 0 .09.048.186.108.21.06.023-.125.047-.41.052-1.224.023-16.81.674-16.833.703-.015.018-.095 2.623-.18 5.79-.082 3.166-.155 5.762-.16 5.77-.01.01-1.057-.844-2.333-1.89z"/>
    <path fill="#999" stroke-width=".172" d="M1651.34 739.66c-1.183-.35-2.924-1.08-4.644-1.94-2.456-1.23-3.045-1.618-5.46-3.59l-2.707-2.21-3.51-4.967-3.507-4.967.306-.79c1.31-3.385 1.587-4.172 1.498-4.262-.056-.056-2.082 1.383-4.5 3.197-2.42 1.816-4.498 3.34-4.618 3.385-.12.046-.387-.055-.593-.225l-.375-.308.184-5.58c.1-3.07.255-5.627.343-5.68.172-.108 16.147-.755 16.218-.658.024.033 1.23 1.45 2.68 3.153 1.45 1.7 2.742 3.217 2.87 3.37.198.233.18.608-.114 2.446-.192 1.193-.348 2.207-.348 2.253 0 .046.828.668 1.84 1.38l1.842 1.3 1.382 2.44 1.383 2.442 3.434.49c1.89.27 3.46.514 3.49.545.09.09-.31 4.764-.42 4.944-.056.09-.357.114-.67.055-1.013-.19-2.133.224-3.027 1.118-.867.867-1.125 1.588-.95 2.663.053.326.043.584-.022.574-.065-.01-.97-.27-2.01-.578z"/>
    <path fill="#f55" stroke-width=".172" d="M1640.647 764.3c-2.28-.164-3.066-.36-3.695-.917l-.466-.413.68-1.57c.792-1.824 1.218-3.358 1.656-5.958.262-1.557.312-2.794.302-7.453l-.012-5.587-1.587-3.136c-2.044-4.04-2.84-5.208-5.345-7.845-1.13-1.19-2.172-2.387-2.312-2.657-.238-.462-.212-.614.415-2.426.647-1.87.798-2.207.918-2.055.032.04.935 1.31 2.007 2.822 2.714 3.83 3.324 4.61 4.896 6.253 3.127 3.272 7.935 6.167 12.85 7.742 2.175.696 3.5.924 4.907.844 1.365-.077 2.225-.552 3.18-1.757l.55-.694.107-3.1c.06-1.707.166-3.914.237-4.907l.13-1.805-2.13-.382c-1.17-.21-2.842-.475-3.717-.59-1.8-.235-1.64-.1-2.91-2.445-.403-.745-.698-1.413-.654-1.485.044-.07.603-.482 1.243-.914l1.162-.785 6.473.103 6.474.104.488.962.487.962-.042 4.383c-.044 4.68-.492 17.77-.714 20.844-.074 1.02-.224 1.945-.335 2.055-.135.134-1.506.243-4.11.327-2.15.07-5.074.218-6.496.33-2.97.233-2.773.286-5.558-1.51l-1.46-.943-.482.576c-.677.81-2.27 3.956-2.794 5.514-.588 1.753-.574 2.32.174 6.964l.118.73-1.354-.025c-.745-.014-2.22-.087-3.28-.163z"/>
    <path fill="#f55" stroke-width=".172" d="M1650.823 739.253c-2.408-.836-5.817-2.54-7.476-3.74-.71-.512-2.063-1.573-3.01-2.36-1.645-1.364-1.87-1.64-5.156-6.302-1.888-2.68-3.42-4.918-3.403-4.973.017-.054.437-1.2.93-2.547.496-1.347.85-2.5.79-2.56-.15-.15-.914.368-5.405 3.663-2.105 1.544-3.932 2.807-4.06 2.807-.626 0-.656-.355-.457-5.277.106-2.628.237-5.06.29-5.404l.1-.627 1.226-.1c1.097-.092 4.362-.236 12.15-.536l2.5-.096 2.785 3.265c3.157 3.7 2.99 3.292 2.523 6.166-.142.882-.217 1.672-.165 1.756.052.084.898.738 1.88 1.454l1.784 1.3 1.346 2.408c.915 1.637 1.456 2.43 1.69 2.48.19.04 1.736.278 3.437.53 1.702.252 3.11.472 3.132.49.046.037-.293 4.24-.362 4.48-.027.095-.467.18-.98.187-2.015.03-3.766 1.7-3.766 3.59 0 .37-.083.606-.215.606-.12 0-1.067-.296-2.106-.657zM1654.328 766.977c-1.813-2.174-2.343-2.66-3.213-2.948-.786-.26-2.22-.15-2.98.23-.32.16-.745.29-.945.29-.336 0-.363-.095-.368-1.247 0-.685-.07-2.02-.148-2.965-.114-1.37-.087-1.934.132-2.787.374-1.45 1.695-4 2.074-4 .065 0 .56.278 1.098.618 1.917 1.21 3.22 2.69 7.335 8.33l2.674 3.663-.786.3c-.852.323-1.703.903-2.675 1.822l-.62.587-1.577-1.893z"/>
    <path fill="#e6e6e6" stroke-width=".344" d="M1627.952 705.583c-.767-.99-2.168-2.56-3.113-3.488l-1.72-1.686.54-1.064c1.784-3.517 2.993-5.002 5.55-6.817 2.085-1.482 3.252-2.036 5.578-2.647l2.942-.772 2.676 1.125c2.633 1.105 2.71 1.172 4.707 4.143 1.116 1.66 2.03 3.092 2.03 3.182 0 .09-.503.082-1.117-.017-.615-.1-2.562-.018-4.33.18-2.84.318-3.536.543-6.035 1.945-2.886 1.62-3.603 2.445-5.74 6.602l-.573 1.114-1.395-1.8z"/>
    <path fill="#e6e6e6" stroke-width=".344" d="M1644.178 710.27l-1.625-2.276-1.916.2c-7.254.756-7.54.747-8.6-.27l-.986-.944 1.41-2.342c1.254-2.084 1.696-2.503 4.007-3.8 2.21-1.238 3.05-1.506 5.625-1.796 2.605-.293 3.318-.253 5.106.288 1.144.347 2.16.844 2.262 1.106.355.926-1.422 3.94-3.26 5.526-.993.858-1.807 1.768-1.807 2.02 0 .253.466 1.384 1.036 2.513.57 1.13.886 2.053.704 2.053-.182 0-1.062-1.025-1.956-2.277z"/>
    <path fill="#999" stroke-width=".344" d="M1660.106 677.017c-1.284-.437-2.485-.946-2.67-1.13-.182-.184-.57-1.562-.862-3.063-.53-2.74-.413-6.43.23-7.23.168-.208 1.698-.975 3.4-1.704 1.702-.73 3.092-1.41 3.09-1.513 0-.103-.14-.398-.303-.655-.236-.375-1.02-.146-3.91 1.144-3.987 1.78-3.768 1.493-4.2 5.51-.145 1.34-.042 2.905.292 4.466.283 1.32.487 2.42.454 2.442-.034.022-.716-.252-1.516-.608-1.302-.58-1.51-.842-1.996-2.513-.463-1.593-.482-2.262-.126-4.588l.417-2.722 2.863-1.676c1.574-.92 2.863-1.752 2.863-1.846.002-.093-.135-.388-.303-.653-.246-.388-.83-.17-3.002 1.114-1.484.88-2.894 1.726-3.134 1.882-.605.396-1.545 6.067-1.272 7.68.258 1.528.126 1.588-1.287.582-1.028-.733-1.036-.765-.882-3.352.147-2.454.265-2.776 1.953-5.36 1.6-2.45 2.124-2.954 4.774-4.606l2.976-1.855 6.37-.45c3.503-.25 6.64-.46 6.97-.466 1.18-.025.565.99-1.976 3.264-1.418 1.27-2.578 2.428-2.578 2.576 0 .15 1.818.986 4.04 1.86 3.402 1.34 5.008 1.74 10.202 2.542l6.165.953.933 1.184c.895 1.137.92 1.28.63 3.555-.164 1.302-.347 2.416-.404 2.474-.18.18-11.334 1.28-13.316 1.31l-1.89.032-.966-2.922-.966-2.922 1.03-2.112c1.02-2.087 1.047-2.528.16-2.528-.518 0-2.534 3.795-2.505 4.717.01.335.443 1.886.962 3.446.518 1.56.895 2.836.837 2.836-1.052 0-7.23 1.147-7.47 1.387-.508.507-1.524.386-4.074-.483z"/>
    <path fill="#b3b3b3" stroke-width=".344" d="M1591.798 718.04l-2.17-5.19 1.91-1.956c1.743-1.784 1.964-2.19 2.525-4.623.57-2.463.733-2.758 2.155-3.866 1.26-.982 1.833-1.2 3.155-1.2h1.615l.21 3.18c.116 1.75.313 6.707.44 11.018l.23 7.84-.995-.277c-1.253-.35-3.286-.35-5.325 0l-1.58.268-2.17-5.19zM1612.82 729.328c-.924-1.665-1.58-2.336-3.515-3.587l-2.38-1.54v-6.358c0-5.16.086-6.308.452-6.085.615.375 15.36 12.502 15.36 12.633 0 .057-1.817 1.457-4.038 3.11-2.223 1.655-4.2 3.203-4.394 3.442-.264.325-.638-.08-1.487-1.614zM1629.804 756.343c-5.516-5.78-5.02-5.48-7.886-4.76-.817.205-.9.133-.9-.783 0-.88.326-1.214 2.53-2.61l2.53-1.604.422-2.668c.6-3.793 2.067-11.83 2.3-12.59.166-.543.544-.302 2.424 1.546 1.785 1.754 2.62 2.973 4.21 6.142 1.962 3.907 1.987 3.996 2.208 7.724.286 4.84-.492 10.918-1.705 13.31-.46.91-.877 1.652-.927 1.652-.05 0-2.393-2.412-5.206-5.36zM1586.867 725.218l-2.008-2.705.223-2.147c.297-2.85.536-4.037.816-4.037.213 0 5.214 9.307 5.214 9.705 0 .1-.504.565-1.12 1.034l-1.12.853-2.007-2.705z"/>
    <path fill="#4d4d4d" stroke-width=".344" d="M1641.152 812.272c-.103-.167.29-.5.87-.742.583-.24 1.966-1.025 3.075-1.742 2.672-1.727 4.224-4.085 5.183-7.876.645-2.547.712-3.498.528-7.555-.23-5.07-1.35-11.01-2.665-14.123-.433-1.023-1.397-2.838-2.142-4.032-1.008-1.617-1.255-2.27-.965-2.56.214-.215.39-.536.39-.713 0-.18-1.5-1.85-3.33-3.714l-3.33-3.39h1.697c.933 0 2.737.102 4.008.222l2.31.218 3.564 5.71c5.42 8.68 5.89 9.62 7.165 14.3 1.278 4.697 1.167 13.247-.233 17.962-1.037 3.493-4.84 6.584-9.605 7.81-2.23.572-6.22.708-6.52.22z"/>
    <path fill="#4d4d4d" stroke-width=".344" d="M1635.325 811.18c-2.69-.666-5.28-2.36-6.478-4.234-.62-.968-1.76-2.54-2.533-3.495l-1.407-1.733-.234-3.938c-.13-2.166-.328-5.098-.442-6.516l-.207-2.578.992.93.992.928 5.128-1.633 5.128-1.632 1.826-4.04c1.94-4.3 5.01-8.43 5.784-7.79.21.175 1.096 1.678 1.97 3.34 1.23 2.34 1.784 3.954 2.455 7.148 1.4 6.673 1.692 10.655 1.03 14.015-1.07 5.42-2.815 7.755-7.547 10.095-2.683 1.328-4.432 1.635-6.458 1.134zm5.576-10.842c1.79-1.252 1.63-3.797-.337-5.454-1.345-1.132-3.023-1.15-4.303-.05-.796.684-.944 1.067-.895 2.32.11 2.83 3.367 4.703 5.536 3.184zM1721.562 788.62c-4.114-1.436-5.212-2.34-5.527-4.54-.124-.87-.497-2.046-.83-2.613-.46-.784-.653-2.14-.81-5.67-.11-2.554-.505-6.69-.874-9.19-.714-4.84-.636-5.808.673-8.38.81-1.592 2.556-2.428 5.467-2.616 2.933-.19 5.015.785 6.004 2.812.648 1.328.65 1.49.077 6.703-.966 8.794-.685 11.995 1.19 13.573.566.476 2.89 1.43 5.438 2.234 4.74 1.494 5.522 1.968 5.522 3.344 0 1.26-1.024 3.224-1.86 3.563-.667.27-10.477 2.092-10.858 2.015-.095-.02-1.72-.574-3.61-1.235zM1749.343 782.617c-.02-1.913-.387-4.415-1.106-7.51-2.022-8.705-3.075-11.134-7.144-16.48-1.478-1.943-2.97-4.055-3.317-4.695-1.223-2.263.205-4.762 3.407-5.96 2.196-.822 4.598-.912 5.92-.222 2.077 1.086 4.672 4.83 7.836 11.31 3.476 7.12 4.494 11.256 4.845 19.695l.202 4.85-3.916.724c-2.153.397-4.54.82-5.307.94l-1.392.216-.027-2.87zM1768.135 775.538c0-7.32-.51-14.132-1.166-15.697-.246-.582-1.313-2.33-2.372-3.884-1.735-2.546-2.99-5.47-2.99-6.966 0-.992 1.798-3.36 3.11-4.1 1.647-.924 4.755-.96 6.687-.073 1.215.557 1.6 1.064 3.317 4.375 3.85 7.426 4.918 11.913 5.463 22.976.202 4.116.3 7.553.214 7.637-.164.164-11.104 2.177-11.83 2.177-.33 0-.432-1.52-.435-6.445zM1787.714 777.638c-1.114-2.93-.912-9.653.418-13.906 1.034-3.305 1.01-6.858-.064-9.764-.633-1.713-1.25-2.528-3.65-4.812-3.242-3.09-3.53-3.898-1.928-5.394 1.507-1.405 2.28-1.653 5.133-1.648 3.358.01 5.747 1.073 8.07 3.604 3.438 3.748 4.058 6.497 3.272 14.51-.453 4.628-.693 5.85-1.44 7.323-.595 1.177-.86 2.186-.79 3.022.096 1.14.247 1.307 1.638 1.82 1.788.657 1.927.916 1.383 2.564-.5 1.516-.872 1.675-6.01 2.572-2.267.396-4.47.803-4.892.905-.61.146-.845-.018-1.14-.795z"/>
    <path fill="#999" stroke-width=".344" d="M1801.195 774.65c.43-2.017 0-2.832-1.78-3.365-1.646-.493-1.723-1.004-.51-3.395.72-1.426.95-2.683 1.438-7.895.517-5.514.65-6.2 1.197-6.2.353 0 .697.33.807.775.104.425.638 2.68 1.187 5.01l.996 4.237-.672 5.882c-.37 3.235-.72 5.928-.776 5.985-.057.057-.58.2-1.162.315l-1.058.212.333-1.562z"/>
    <path fill="#4d4d4d" stroke-width=".344" d="M1715.203 669.022c-2.363-.262-7.897-.867-12.298-1.345l-8-.87-7.25-2.572c-6.603-2.344-7.564-2.79-10.825-5.03-3.755-2.58-3.768-2.6-4.008-5.684l-.14-1.793 1.926.172c8.54.76 19.988 1.18 32.05 1.173 11.867-.01 15.886-.153 27.786-1.01 7.653-.552 13.982-.935 14.066-.85.142.14-.576 6.315-1.4 12.044l-.352 2.443-2.285 1.08c-1.847.874-3.013 1.15-6.067 1.438-2.08.196-4.71.497-5.844.67-3.74.564-12.834.635-17.36.134zM1679.993 664.584c-4.287-.714-10.23-2.528-10.684-3.26-.148-.24 3.02-3.087 3.433-3.087.117 0 1.766 1.075 3.664 2.388 2.13 1.474 4.327 2.68 5.74 3.148 1.26.42 2.756.962 3.323 1.208.984.428.992.447.172.425-.473-.013-3.015-.383-5.65-.82zM1596.313 766.12c-1.62-.467-4.134-3.177-5.448-5.874-1.947-3.995-2.66-7.37-2.667-12.637-.01-5.725.753-8.65 2.87-11.036 1.244-1.4 1.466-1.51 3.04-1.51 2.083 0 3.655 1.073 5.44 3.715 5.284 7.83 5.552 22.23.492 26.488-.59.497-1.203.903-1.362.903-.16 0-.496.064-.747.14-.25.078-.98-.01-1.617-.19z"/>
    <path fill="#999" stroke-width=".344" d="M1597.907 772.37c-4.99-1.56-9.622-9.29-11.642-19.433-.297-1.492-.475-4.562-.468-8.078.01-4.813.127-6.08.777-8.353 2.308-8.078 6.345-11.202 11.12-8.603 4.507 2.453 8.585 10.257 10.103 19.333.713 4.266.542 12.775-.32 15.84-1.904 6.785-5.725 10.495-9.57 9.293zm1.348-5.19c6.053-2.287 7.5-16.6 2.69-26.618-2.3-4.79-4.976-6.903-8.383-6.62-1.73.143-2.024.295-3.292 1.696-.87.96-1.715 2.43-2.25 3.918-.78 2.165-.86 2.88-.86 7.88 0 4.657.12 5.94.784 8.364 2.255 8.247 6.99 13.012 11.31 11.38z"/>
    <path fill="#ccc" stroke-width=".344" d="M1610.118 806.818c-1.195-2.083-1.645-2.517-4.4-4.25l-3.07-1.93-1.472-8.21-1.472-8.21.52-4.126c.823-6.514.717-6.17 2.043-6.65 1.722-.622 4.327-3.658 5.414-6.31 1.61-3.927 2.173-7.414 2.122-13.164-.034-3.826-.24-6.085-.796-8.756-2.303-11.056-8.172-19.47-13.737-19.692-1.9-.076-1.24-.784 1.2-1.29 1.42-.296 2.313-.287 3.753.035l1.89.423v1.836c0 1.01.106 1.836.236 1.836.873 0 4.478-1.22 4.81-1.63.724-.892 3.244 1.21 4.93 4.115l1.45 2.5-.945 3.908c-.86 3.55-.923 4.26-.706 7.734.13 2.104.498 5.182.816 6.84l.58 3.015 1.31-.894 1.31-.894-.232 5.098c-.264 5.777.096 4.912-4.802 11.517l-2.21 2.98 6.94 7.255c5.017 5.244 6.97 7.513 7.047 8.19.143 1.267 1.386 19.825 1.33 19.9-.023.03-2.284.227-5.025.434-2.74.205-5.55.45-6.244.54-1.245.166-1.276.14-2.592-2.152z"/>
    <path fill="#ccc" stroke-width=".344" d="M1618.48 780.824c-4.275-4.42-7.773-8.147-7.773-8.285 0-.14 1.392-2.155 3.093-4.48l3.094-4.224v-3.253c0-1.79.096-3.95.212-4.803l.213-1.55 3.352-.898 3.354-.9 3.566 3.684c1.962 2.026 5.188 5.388 7.17 7.47 1.98 2.084 4.8 5.025 6.262 6.538l2.66 2.75-2.48 2.753c-2.05 2.273-2.782 3.428-4.2 6.63l-1.72 3.878-4.255 1.36c-2.34.75-4.372 1.363-4.516 1.363-.143 0-3.76-3.616-8.034-8.034zM1613.837 750.457c-.224-1.094-.486-3.768-.582-5.942-.16-3.666-.092-4.27.96-8.316l1.132-4.365 7.56-5.666c4.156-3.117 7.597-5.627 7.646-5.577.05.05-.454 1.468-1.118 3.154-1.124 2.852-2.116 7.383-4.097 18.71l-.572 3.27-5.027 3.26c-2.766 1.795-5.134 3.307-5.262 3.36-.13.054-.417-.796-.64-1.89zM1603.353 725.18c-.098-.803-.433-9.144-.745-18.534-.546-16.455-.544-17.11.06-18.132.494-.84.858-1.06 1.745-1.06h1.12l.095 19.164c.052 10.54.017 19.26-.078 19.377-.094.117-.588.31-1.096.43-.875.207-.934.14-1.102-1.244zM1591.175 722.988c-.562-1.11-3.478-6.737-6.48-12.503-4.908-9.428-6.625-13.195-6.205-13.614.078-.077.42.48.763 1.237.56 1.242.746 1.38 1.87 1.38h1.247l5.28 12.392c3.746 8.79 5.175 12.5 4.915 12.76-.26.26-.665-.22-1.39-1.652zM1579.255 746.003l-3.094-.502-3.138-3.108-3.14-3.11.795-2.026c.437-1.115.98-3.185 1.21-4.602.228-1.417.474-2.576.545-2.576.072 0 1.945.902 4.164 2.004 2.218 1.103 5.067 2.436 6.33 2.963 2.228.93 2.285.986 1.95 1.863-.19.498-.435 2.877-.544 5.287l-.197 4.383-.893-.036c-.492-.02-2.286-.262-3.987-.54zM1587.483 792.474l-2.62-3.26-.17-2.842c-.106-1.798-.536-3.98-1.17-5.936l-1-3.094 2.688-6.836 2.69-6.836 1.133 2.024c1.196 2.137 3.054 4.584 4.487 5.91 1.19 1.102 4.1 2.465 5.27 2.47.877 0 .953.095.78.948-.105.52-.427 2.8-.715 5.064-.5 3.916-.49 4.312.172 8.078.383 2.177.77 4.292.858 4.698.128.586-.183.96-1.5 1.805-1.562 1.003-1.854 1.065-4.97 1.065h-3.31l-2.622-3.258z"/>
    <path fill="#ccc" stroke-width=".086" d="M1616.15 753.005c0-.18.26-.38 1.805-1.38l1.804-1.168V752.294l-1.655.424c-.91.233-1.722.44-1.805.46-.112.03-.15-.015-.15-.173z"/>
  </g>
  <path fill="#4d4d4d" stroke="#494949" stroke-width=".008" d="M391.607 321.552c-2.685-.127-4.876-.732-5.893-1.627-.57-.503-.803-.965-.8-1.593.003-.76.193-1.256 1.353-3.54.572-1.127 1.112-2.252 1.2-2.5.088-.25.39-1.376.674-2.502.284-1.125.535-2.065.558-2.088.047-.048 13.342-3.892 13.458-3.892.197 0-.56 5.195-1.356 9.318-.474 2.453-1.67 7.912-1.75 7.993-.123.124-3.34.413-5.103.46-.62.016-1.674.004-2.34-.028zM415.85 309.732c-1.64-.306-2.204-.495-3.043-1.02-.618-.387-.945-.82-1.175-1.554-.147-.472-.175-.742-.168-1.653.01-1.213.378-4.435.517-4.52.064-.04 14.558-4.243 15.495-4.494.11-.028.163.175.34 1.284.396 2.464.48 3.28.432 4.262-.074 1.54-.413 2.457-1.267 3.42-1.756 1.976-4.397 3.41-7.45 4.047-.724.15-1.302.212-2.228.235-.688.017-1.34.015-1.452-.006zM364.662 316.905c-.57-.078-1.194-.314-2.16-.818-.783-.408-.997-.552-.888-.597.22-.092 10.524-3.047 10.622-3.047.14 0-.978 1.092-1.765 1.726-2.207 1.778-4.59 2.9-5.808 2.735zM438.703 295.793c-.16-.057-.403-.183-.538-.28-.475-.337-1.39-1.582-1.255-1.706.1-.093 11.654-3.406 11.703-3.356.11.112-1.572 1.793-2.64 2.638-1.8 1.423-4.067 2.483-5.844 2.73-.79.11-1.064.105-1.427-.025z" stroke-linecap="round" stroke-linejoin="round" transform="matrix(.62024 0 0 .62107 -46.112 1.78)"/>
</svg>
