<svg xmlns="http://www.w3.org/2000/svg" viewBox="0 0 100 45" version="1">
  <path fill="#999" fill-rule="evenodd" stroke="#000" stroke-width=".17" d="M28.372-.04c-.054.002-.11.004-.152.008-.028.003-.048.006-.06.01l-.01.003h-.003v.01h.004c.03.01.18.02.4.02.23 0 .37 0 .4-.01v-.01l-.01-.01-.06-.01c-.13-.01-.33-.01-.49 0zm.124.14c-.71.014-1.16.198-1.597.647-.51.518-.66.986-.65 2.006.01 1.253.12 1.486 1.62 3.474 3.68 4.873 8.73 11.43 13.2 17.132 1.57 2 3.34 4.38 3.53 4.73.16.3.17.35.08.69-.05.18-.1.34-.12.37h-.01c-.04.01-.55.06-1.15.1-2.38.17-5.52.57-8.33 1.05-3.81.65-11.02 2.02-12.27 2.32-3.08.74-3.12.75-3.7.66-1.45-.23-2.71-1.45-3.72-3.58-.45-.94-.62-1.46-.93-2.84-.15-.63-.31-1.31-.38-1.52-.47-1.42-1.32-2.18-2.45-2.18-.79 0-1.35.31-1.66.91-.51 1-.83 2.73-1.19 6.41-.15 1.49-.3 2.78-.34 2.92l-.01.01-.01.02c-.08.11-.26.18-.48.18l-1.02-.27-.01-.01c-.18-.07-.38-.14-.57-.21-2.7-1.03-3.39-1.19-4.49-1.04-1.28.19-1.96.74-1.96 1.6 0 .72 1.02 1.54 3.95 3.19.83.46 1.53.9 1.62 1v.01c.01.07-.14.31-.33.54-.19.23-.34.47-.35.54 0 .22.17.42.51.58.3.13.57.16 1.98.21 1.02.03 1.85.1 2.23.18.37.08 1.75.58 3.6 1.32 5.86 2.35 8.48 3.22 9.28 3.07.58-.11.95-.72.84-1.36-.1-.51-.46-.89-1.84-1.95-1.03-.78-1.32-1.04-1.37-1.2-.01-.01-.01-.02-.01-.03-.01-.06-.01-.1 0-.14l.01-.03v-.02l.02-.02v-.01h.02v-.01c.05 0 .33-.04.63-.08 1.16-.17 3.13-.31 4.92-.35 1.73-.04 2.91-.14 13.71-1.25l11.82-1.2 14.09 4.16c7.69 2.27 14.08 4.13 14.28 4.16.29.01 1.88-.44 2.02-.56 0 0 0-.01.01-.01v-.01l.09.07c-.06-.55-.17-.99-.32-1.34.11.03.15.08.18.19.01.06.03.09.04.11v.01-.01l.01-.09c0-.09-.1-.32-.22-.51-.13-.19-.31-.38-.68-.69l-.01-.01-.02-.01c0-.01-.01-.01-.01-.01-.01-.01-.02-.01-.02-.02-.13-.12-.27-.24-.41-.34l-.01-.01-.02-.02-.03-.01-.01-.01-.04-.03-.42-.33-.41-.32-.02.04c-.2-.16-.38-.35-.55-.57l.01-.24c.03-.07.09-.15.16-.23.1-.12.27-.39.37-.59.1-.2.33-.48.5-.62l.31-.27-.55-.28c-.27-.13-.5-.23-.56-.25h-.02v.01l-.01.01c-.02.06-.07.32-.12.63l.05-.69c-.12-.07-.29-.12-.5-.17l.01-.02v-.04h-.01c-.03-.06-.18-.13-.5-.27-.33-.13-.86-.3-1.18-.36-.53-.1-.64-.1-1.1.01-.89.2-1.99-.08-1.99-.51 0-.15.05-.18.39-.22.82-.1 1.28-.58 1.28-1.35 0-.31.03-.39.23-.56.12-.1.25-.18.3-.19h.02l.01-.01.01-.01v-.02s0-.01.01-.01v-.01s0-.01.004-.01v-.01c.02-.1-.05-.287-.16-.38-.15-.12-.15-.16-.07-.336.05-.11.175-.23.283-.27.226-.09.94-.1 1.06-.02.05.04.17.4.28.81l.192.76.01-.56c.01-.73.14-1 .5-1 .12 0 .19.01.23.04l.01.01.01.02c.01.02.01.04.01.06v.02h.01v.01h.01l.002-.01c.02-.02.05-.08.09-.17.132-.33-.19-.22 3.392-1.16 4.09-1.07 5.92-1.6 8.6-2.48 4.62-1.52 5.28-1.8 6.89-2.92 1.55-1.08 2.12-1.72 2.12-2.38 0-.52-.63-1.04-1.68-1.39l-.585-.19h-2.9c-2.18 0-3.13-.03-3.248-.09-.09-.05-.31-.205-.48-.346-.29-.23-.41-.27-1.4-.44-.6-.09-1.294-.19-1.543-.22-.3-.03-3.53.2-9.42.68-4.93.39-9.15.72-9.38.72-.48 0-.79-.16-1.08-.55l-.19-.26-.03.38c-.03.34-.06.38-.23.4-.16.02-.25-.054-.55-.49-.19-.28-.44-.6-.55-.7l-.2-.19.2.265c.34.46.59 1.06.59 1.46 0 .31-.03.39-.25.62h-.01c-.24.09-.47.19-.68.3-.1-.05-.21-.155-.32-.3-.14-.37-.33-.73-.61-1.09h.03v-.01l.01-.01v-.02c-.01-.02-.04-.05-.08-.1-.04-.04-.09-.08-.16-.12h-.01l-.01-.01h-.01c-.06-.03-.12-.05-.18-.06-.33-.06-4.52.09-5.34.19-.36.044-.97.165-1.37.27-1.02.27-1.49.31-1.85.16-.12-.05-.27-.136-.43-.245l-.02-.02-1.67-1.74c0-.01 0-.01-.01-.01-.02-.06-.03-.11-.03-.16 0-.1.01-.19.03-.21h.01c.03 0 .27-.05.55-.105.28-.06.99-.16 1.57-.23 1.13-.13 1.72-.27 2.18-.52.27-.15.28-.18.33-.68.04-.41.1-.58.27-.8.12-.145.21-.28.22-.31v-.01c-.01-.03-.09-.1-.18-.17-.1-.08-.27-.32-.38-.54l-.15-.27c-.06-.34-.16-.685-.31-1.035-.72-1.09-4.71-.42-7.63.02 2.1-.52 2.86-.62 4.55-.62.85 0 1.23-.006 1.31-.03h.02v-.02h-.02l-.01-.01c-.02-.01-.06-.02-.12-.04-.21-.05-.86-.095-1.44-.097-1.12 0-1.88.1-4.23.59-.61.13-1.24.23-1.38.23-.69 0-1.68-.81-5.86-4.84-6.29-6.07-7.9-7.54-9.97-9.1C30.92.79 29.56.1 28.58.1h-.084zm29.337 13.185s.002.004 0 .004h-.004v.02c.01.03.08.1.18.18.14.11.37.3.49.41.14.12.22.19.24.2v-.01l-.01-.01c-.02-.04-.16-.19-.39-.41-.22-.21-.44-.39-.52-.42h-.02zm1.785.004c.006.02.07.13.2.33.385.59.596 1.02 1.034 2.1.184.45.352.83.393.88h.014v-.05c0-.15-.14-.61-.32-1.03-.3-.71-.91-1.77-1.2-2.11-.07-.07-.11-.12-.13-.14 0-.01 0-.01-.01-.01l-.01-.01zm.59 4.04l.04.48c.02.26.036.67.038.91 0 .19.007.3.022.33l.004.01h.012l.005-.01c.01-.01.04-.03.07-.08.15-.2.13-.6-.05-1.18l-.15-.5zm-2.336 1.49c-.034.24-.09.39-.16.45l-.027.01c-.082.05-.132.05-.2-.01l.178-.06c.085-.13.153-.27.21-.41zm2.636 4.02h.08c-.53.06-1.052.13-1.57.21.667-.14.954-.2 1.49-.22zm-48.845.51h.038c-.19.01-.4.07-.63.16l.05-.03c.12-.07.33-.13.55-.14zm-.605.16l-.166 2.45v-2.35l.166-.1zm87.554.15c.138.11.233.24.235.35 0 .09.05.29.114.44.07.15.11.34.11.44V25l-.01.01v.006c-.01.01-.03.02-.05.03-.02-.63-.15-1.08-.37-1.39zm.954.49c-.008.02-.014.11-.014.25 0 .13.002.21.01.24h.008v-.01h.004v-.01c.003-.01.006-.02.008-.04.018-.12.018-.31 0-.42 0-.02-.006-.03-.008-.04v-.01l-.004-.01h-.004zm-.613.9h-.043l-.12.01h-.07l.05-.01.04-.01.13-.02.02-.01.023-.01zm-84.876 1.31c.11.37.22.8.335 1.27l.09.35c-.155-.49-.297-1.04-.425-1.63zm29.938 3.06l-12.02 1.98c6.81-1.22 10.264-1.79 12.02-1.98zM-.207 33.41v.004c-.008.03-.014.134-.013.286 0 .145.005.24.013.265v.004h.004c0-.01.004-.01.004-.01v-.01c.01-.01.01-.03.01-.05.02-.14.02-.35 0-.46 0-.02 0-.03-.01-.04zm75.38 1.435l-.003.068h-.012l.016-.068zm5.57 1.614c.01.02.074.14.21.35.518.82.66 1.3.66 2.27 0 .42.005.78.016.84v.01-.01c.08-.06.38-.83.39-1 0-.47-.63-1.77-1.14-2.34-.08-.08-.13-.14-.15-.15l-.01-.01h-.01zm1.627.33h-.004c-.005.04.02.16.08.37.062.2.153.68.205 1.06.05.31.08.47.1.5h.01v-.01l.01-.01c.01-.02.02-.05.02-.1.03-.37-.11-1.17-.27-1.57-.05-.15-.1-.23-.12-.26v-.01zm-1.366 7.23l.497.39c-.03-.01-.08-.02-.13-.02-.11-.01-.18-.02-.23-.05-.06-.05-.08-.14-.13-.33zm-1.48 1.16l-.09.01c-.015 0-.026 0-.03.01h-.01.01c.023.01.093.01.2.01.107 0 .18-.01.202-.01 0 0 .004-.01.006-.01h.004-.004c-.002 0 0-.01 0-.01h-.01l-.03-.01c-.067-.01-.162-.02-.247-.01z"/>
  <path fill="#000" d="M78.884 45.182c-.292-.073-6.62-1.927-14.065-4.12-7.45-2.195-13.66-3.99-13.82-3.99-.15 0-5.41.528-11.68 1.174-8.02.826-11.68 1.175-12.33 1.175-1.22 0-3.51.13-4.98.27-1.37.14-1.61.18-1.55.27.02.04.52.43 1.11.88.59.45 1.19.92 1.33 1.05.84.78.83 2.2-.01 2.63-.88.45-2.91-.15-9.57-2.82-1.75-.7-3.39-1.33-3.64-1.39-.58-.15-1.96-.27-3.07-.27-1.04 0-1.54-.12-1.85-.45-.33-.34-.31-.7.06-1.15.15-.19.28-.37.28-.4 0-.04-.62-.4-1.38-.82C.5 35.44-.44 34.6-.34 33.56c.106-1.095.874-1.595 2.56-1.666 1.098-.045 1.695.088 3.5.78.71.275 1.516.57 1.786.66l.49.16.14-.173c.08-.09.14-.23.14-.31 0-.37.55-5.58.656-6.21.24-1.45.63-2.7.986-3.16.43-.57 1.54-.84 2.38-.6 1.27.37 1.87 1.3 2.38 3.7.26 1.22.528 2.02.95 2.91 1.098 2.27 2.42 3.45 3.85 3.45.26 0 .946-.12 1.65-.29 2.708-.66 7.35-1.57 13.67-2.66 2.74-.47 6.07-.9 8.257-1.06.645-.05 1.216-.12 1.27-.17.05-.04.092-.19.092-.32 0-.19-.15-.45-.65-1.14-.86-1.18-2.22-2.94-4.54-5.9-2.84-3.62-8.86-11.45-12.19-15.86-.7-.93-.916-1.37-1.04-2.16-.23-1.44.154-2.74.95-3.24.563-.35 1.64-.47 2.46-.27.8.2 2.164.98 3.673 2.12 1.89 1.42 3.816 3.17 8.933 8.12 3.872 3.74 5.152 4.91 6.01 5.48.52.35.624.35 2.18.02 2.672-.56 3.84-.68 5.022-.54.73.09 1.416.3 1.68.52.134.11.17.29.27 1.34.11 1.23.22 1.78.34 1.78.123 0 .18-1.14.076-1.63-.05-.25-.11-.64-.13-.86-.03-.35-.02-.4.1-.38.14.03.33.36.71 1.21.14.32.32.58.5.72.15.12.28.26.28.3 0 .05-.13.26-.29.47-.23.32-.3.48-.34.86-.1.86-.42.99-3.48 1.4-.97.13-1.12.17-1.12.28 0 .13 1.54 1.63 1.82 1.77.37.18.73.16 1.83-.11 1.17-.29 2.26-.38 4.94-.44l2.1-.05.29.3c.16.17.35.47.42.68.08.21.22.48.32.61.18.22.19.23.4.11.12-.06.26-.21.32-.32.23-.48-.36-1.54-1.5-2.66-.76-.74-.81-.94-.19-.68.3.13 1.08.73 1.44 1.11.13.14.42.49.63.77l.39.52v-.29c0-.58-.51-1.38-1.67-2.63-.25-.26-.45-.53-.45-.6 0-.15.02-.15.39.04.66.34 1.11.88 1.96 2.34.4.69.85 1.19 1.12 1.25.11.03 4.25-.28 9.18-.68s9.19-.72 9.45-.72c.52 0 1.89.18 2.71.35.41.09.62.19.94.43l.42.32 3.31.04 3.31.04.58.25c.63.27 1.14.67 1.32 1.01.32.61-.08 1.63-.89 2.28-.6.49-2.21 1.56-2.75 1.83-.74.38-2.27.94-4.92 1.82-2.69.89-5.05 1.57-9.13 2.64-1.65.43-3.04.81-3.09.85-.05.04-.13.27-.18.52-.05.26-.13.45-.18.45-.05 0-.15-.14-.21-.31-.13-.34-.28-.36-.36-.06-.03.1-.06.54-.07.98-.01.44-.04.88-.06.98-.07.25-.23.29-.27.07-.17-.83-.44-1.97-.5-2.14-.07-.17-.12-.19-.45-.19-.42 0-.54.1-.36.3.25.28.13.62-.32.92-.13.09-.18.23-.24.63-.11.78-.4 1.11-1.14 1.3l-.34.09.19.1c.2.11.81.12 1.8.03.46-.04.66-.02 1.23.15.78.22 3.26 1.43 3.26 1.59 0 .06-.17.21-.37.33-.25.15-.44.36-.58.6-.11.2-.29.48-.38.63-.14.2-.16.28-.09.37.05.06.52.44 1.04.84 1.57 1.23 1.66 1.37 1.66 2.51v.81l-.36.12c-.46.16-1.74.43-1.94.42-.09 0-.4-.06-.69-.14zm2.497-1.398c-.02-.15-.08-.272-.11-.272-.09 0-.08.17.01.422.11.277.17.187.11-.15zM79 41.174c0-.07-.537-.465-.63-.465-.13 0-.03.14.23.32.297.21.4.24.4.13zm-.34-2.53c.034-.27.026-.435-.02-.435-.07 0-.17.5-.17.85 0 .31.14 0 .19-.43zm-1.82-.496l.228-.065-.19-.046c-.244-.058-2.498-.235-2.535-.197-.014.015-.052.127-.082.248l-.05.22 1.21-.048c.67-.026 1.31-.077 1.43-.112zm-56.93-1.682c8.258-1.273 14.48-2.188 21.4-3.145 3.4-.47 4.88-.86 5.414-1.43.166-.18.177-.22.097-.43-.16-.43-.58-1.07-.97-1.48-.45-.47-.36-.46-2.09-.24-3.15.4-19.73 3.34-22.03 3.91-1.1.28-3.22.92-4.66 1.43l-2.39.84-1.18.41-.75-.22c-.41-.12-1.18-.38-1.72-.57-.53-.19-.99-.33-1-.31-.01.02.61.32 1.4.66l2.33 1.03c.59.26.98.39 1.1.37.11-.02 2.39-.37 5.08-.78zm8.257-2.726c-.044-.083-.088-.28-.097-.436-.017-.28-.01-.286.273-.31.322-.026.658.146.658.336 0 .17-.41.56-.59.56-.08 0-.19-.068-.23-.15zm2.69-.173c-.15-.215-.148-.694.004-.846.26-.25.61-.09.78.35.09.22.06.29-.21.46-.34.22-.44.23-.56.05zm2.427-.305c-.066-.1-.128-.315-.137-.478l-.02-.295.32.01c.415.02.628.14.628.35 0 .19-.25.46-.506.53-.13.04-.2 0-.29-.13zm2.614-.186c-.176-.144-.316-.614-.253-.855.045-.17.22-.18.655-.06.284.08.293.09.254.36-.094.67-.304.85-.656.56zm2.453-.737c-.05-.31.06-.65.21-.65.17 0 .58.28.67.46.12.22-.02.34-.47.41l-.35.05-.05-.28zm2.82-.09c-.02-.03-.05-.24-.05-.46 0-.34.03-.41.14-.41.31 0 .7.52.6.79-.04.11-.57.17-.68.06zm2.61-.31c-.14-.12-.15-.17-.08-.47.11-.47.2-.56.48-.49.38.08.44.17.39.51-.07.45-.16.57-.4.57-.12 0-.29-.06-.37-.13zm-28.07 2.73c1-.49 1.86-.92 1.9-.95.05-.04-.29-.44-.84-.99-1.04-1.06-1.25-1.35-1.78-2.46-.29-.62-.45-1.11-.71-2.18-.43-1.81-.59-2.32-.95-3.03-.51-1.03-1.2-1.6-1.75-1.46-.45.11-.43-.21-.43 5.66v5.37l.18.11c.1.06.4.2.67.31 1.03.42 1.48.56 1.7.52.13-.03 1.05-.44 2.05-.93zm59.25-.25c-.02-.05-.08-.08-.12-.08-.08 0-.09.25-.01.33.07.07.2-.16.14-.26zm-68.72-.67c-.1-.1-.69-.32-.84-.32-.19 0-.05.1.34.24.4.14.62.17.51.07zm64.26-5.32c18.61-2.72 22.45-3.22 26.83-3.49 1.43-.09 1.47-.1 1.42-.25-.02-.09-.07-.27-.09-.41-.08-.45-.36-.57-1.81-.8-1.49-.23-1.78-.24-4.15-.09-4.18.26-4.35.27-4.74.19-.6-.13-.82-.42-.77-1 .01-.12-.02-.21-.06-.21-.18 0-7.85.46-9.4.57-4.37.3-8.15.63-9.13.8-.4.07-.95.35-1.07.54-.02.03-.11.43-.18.88-.26 1.53-.54 1.64-.71.27-.08-.65-.1-.72-.27-.72-.27 0-.58.38-.67.84-.1.48-.35.95-.61 1.14-.18.14-1.48.39-2.5.48-.64.06-.83.1-.83.18 0 .03.29.39.65.79.82.92 1.12 1.08 1.95 1.1.24 0 3.02-.37 6.18-.83zm-1.55-1.91c-.12-.13-.11-.61.02-.78.1-.13.13-.14.4-.03.23.08.3.15.32.32.05.4-.47.74-.73.49zm3.24-.18c-.11-.13-.22-.78-.16-.93.04-.11.54-.07.8.07.22.11.16.43-.12.71-.29.28-.37.3-.51.13zm-10.83 1.88c0-.1-.9-.79-1-.76-.04.01.13.2.4.42.47.38.6.46.6.34zm-.19-1.91c-.02-.04-.16-.08-.3-.08-.14 0-.27.03-.3.07-.02.04.09.07.31.07s.33-.03.31-.08zm2.64-.2c.21-.06.15-.18-.08-.17-.32.01-.57.1-.61.21-.03.08.03.09.26.05.16-.03.35-.07.43-.09zm.95-1.83c-.14-.96-.17-1.07-.25-.99-.05.05.28 1.95.35 1.95.03 0-.01-.44-.09-.97zm-5.7.17c3.22-.33 4.39-.46 4.48-.51.08-.05.02-.65-.09-.82-.02-.04-.68-.07-1.5-.07-1.13 0-1.65.03-2.29.15-.92.17-3.27.71-3.33.77-.02.02.03.19.12.38.15.33.17.34.44.31.16-.02 1.14-.12 2.18-.22zm-5.83-7.34l3.03-.24.03-.47.03-.47-.36-.06c-.2-.04-.87-.06-1.5-.06-1.31 0-2.27.15-4.45.68-1.53.37-1.6.41-1.26.77.15.15.2.16.82.11.37-.02 2.03-.15 3.69-.28zm28.12 23.54c-.02-.03 0-.44.05-.9.06-.66.06-.94-.02-1.28-.14-.65-.69-1.67-1.25-2.33-.62-.74-.64-.88-.09-.64 1.13.48 2.52 2.8 2.25 3.76-.09.32-.69 1.37-.8 1.41-.05.01-.11 0-.13-.04zm1.21-.79c-.02-.05-.05-.47-.08-.92-.09-1.43-.41-2.39-1.21-3.55-.57-.83-.56-.96.04-.49.74.58 1.38 1.57 1.62 2.5.16.58.15 1.55-.02 2.07-.12.4-.28.57-.35.37zm-22.5-20.72c0-1.35-.24-2.54-.71-3.56-.25-.55-.44-.82-.88-1.27-.3-.32-.77-.71-1.03-.86-.27-.16-.49-.32-.49-.36-.03-.12.69-.14 1.04-.04.45.13 1.01.76 1.46 1.63.63 1.23 1.38 3.38 1.38 3.94 0 .34-.44 1.01-.66 1.01-.08 0-.1-.13-.11-.51zm1.23-1.67c-.04-.08-.31-.73-.61-1.46-.63-1.54-1.08-2.33-1.69-3-.51-.56-.57-.76-.19-.63.67.23 1.25.81 1.83 1.85.55.96.87 1.8.92 2.43.08.76-.06 1.18-.26.8z"/>
  <path fill="#999" d="M79.073 45.215c-.187-.052-6.55-1.923-14.138-4.16l-13.798-4.062-11.404 1.174c-10.48 1.08-11.59 1.18-13.702 1.25-1.26.044-2.69.113-3.17.154-1.46.13-2.38.25-2.44.31-.03.03.48.47 1.15.97 1.32 1 1.76 1.44 1.9 1.9.29.96-.15 1.75-1.04 1.88-.88.13-3.61-.77-9.44-3.12-1.6-.64-3.15-1.22-3.46-1.29-.33-.07-1.22-.14-2.22-.18-1.8-.06-2.12-.13-2.47-.47-.33-.33-.3-.69.1-1.14.27-.3.3-.37.21-.45-.06-.06-.73-.45-1.51-.88C1.9 36.11 1 35.52.37 34.92c-.695-.666-.824-1.072-.57-1.81.28-.816 1.19-1.22 2.72-1.21 1.046.006 1.535.124 3.22.778 2.09.81 2.357.875 2.5.602.048-.086.22-1.492.38-3.125.327-3.247.48-4.225.874-5.434.307-.95.59-1.33 1.18-1.58.34-.14.495-.16 1.084-.14.744.04 1.1.17 1.583.6.59.52 1.01 1.5 1.34 3.14.33 1.64.86 2.95 1.7 4.21.84 1.27 1.74 1.96 2.78 2.14.47.08.55.07 2.6-.42 2.8-.66 2.2-.54 7.63-1.54 7.24-1.33 9.89-1.73 12.97-1.97 1.99-.15 2.02-.16 2.11-.46.06-.22.04-.29-.22-.68-.44-.66-2.37-3.19-5.07-6.64-5.48-7-12.59-16.32-12.82-16.83-.27-.58-.35-1.11-.32-2.08.04-.97.16-1.35.6-1.85.41-.46 1.12-.73 1.95-.73 1.83 0 4.84 2.14 10.14 7.2.46.44 2.11 2.03 3.68 3.53 3.31 3.18 3.6 3.46 4.5 4.23.91.79 1.52 1.19 1.82 1.19.13 0 .9-.13 1.71-.3 1.98-.41 2.82-.52 3.87-.52 1.3 0 2.4.25 2.7.62.05.06.11.41.13.79.09 1.19.18 1.84.31 2.14.12.29.13.29.18.1.11-.35.08-1.63-.04-1.97-.21-.6-.09-1.05.19-.68.07.1.25.45.38.79.18.45.34.7.58.93l.33.31-.3.4c-.23.31-.3.49-.34.83-.03.24-.08.49-.12.57-.18.34-1.26.65-2.84.81-1.09.11-1.56.23-1.59.39-.04.19 1.38 1.59 1.81 1.8.44.21.62.21 1.51-.02 1.45-.37 2.71-.48 5.57-.51 2.18-.02 1.99-.1 2.58 1.17.27.59.41.66.75.35.33-.29.36-.6.09-1.17-.21-.46-.93-1.37-1.51-1.92-.45-.42-.51-.54-.28-.54.4 0 1.88 1.32 2.4 2.14.13.2.26.36.3.36.12 0-.03-.72-.26-1.17-.23-.47-.49-.81-1.39-1.81-.28-.32-.5-.6-.47-.63.08-.08.5.13.82.4.47.39.83.86 1.32 1.74.25.45.61.98.81 1.18.35.35.37.37.8.37.25 0 4.48-.33 9.4-.72 8.06-.65 9.02-.71 9.65-.64 1.12.12 2.43.37 2.6.5.08.06.3.21.49.33l.33.23h3.05c3.04 0 3.06 0 3.65.19.71.22 1.47.69 1.69 1.04.12.19.15.34.13.63-.06.83-.55 1.4-2.09 2.47-1.67 1.16-2.43 1.48-7.06 3.01-2.63.86-4.49 1.4-9.04 2.59-1.46.38-2.68.72-2.72.76-.04.04-.11.25-.16.47-.05.22-.12.4-.16.4-.04 0-.13-.13-.2-.28-.27-.58-.4-.3-.44.93-.03.86-.13 1.34-.24 1.17-.03-.04-.14-.48-.25-.97-.32-1.46-.31-1.43-.73-1.46-.25-.02-.39.01-.48.11-.12.11-.12.13-.01.2.08.04.12.17.12.35 0 .24-.04.33-.3.53-.26.21-.3.29-.3.53 0 .41-.14.77-.4 1.05-.22.23-.41.32-.92.44-.21.05-.22.06-.09.16.08.06.33.14.56.19.36.07.49.07.87-.05.39-.12.52-.12 1.01-.05.31.05.78.16 1.03.25.52.17 2.84 1.31 2.91 1.43.03.04-.08.16-.24.26-.16.1-.39.3-.5.44-.22.26-.73 1.1-.73 1.2 0 .03.37.34.81.68 1.02.79 1.66 1.39 1.85 1.76.11.22.14.44.14 1 0 .64-.02.73-.15.8-.19.1-1.99.54-2.18.53-.08-.01-.29-.05-.48-.11zm2.332-1.444c-.104-.31-.264-.34-.224-.03.04.28.17.49.26.41.05-.04.04-.18-.02-.36zm-2.372-2.52c.085-.14-.582-.62-.698-.5-.03.04.08.18.246.32.33.28.39.3.46.19zm-.345-2.54c.077-.42.02-.7-.1-.51-.086.14-.206.92-.154 1.01.085.14.17-.02.254-.49zm-2.834-.42c.583-.04 1.12-.09 1.194-.12.303-.09 0-.17-1.06-.25-.615-.05-1.226-.1-1.356-.12-.287-.03-.407.07-.407.35 0 .25-.002.25 1.63.14zM21.14 36.32c6.654-1.025 13.06-1.975 16.873-2.5l3.636-.503c3.49-.483 5.22-1.04 5.22-1.675 0-.236-.24-.7-.66-1.29-.48-.68-.64-.78-1.2-.78-1.09 0-7.98 1.143-18.08 3-5.74 1.05-6.23 1.18-11.31 2.956-1.12.39-2.11.71-2.2.71-.1 0-1.04-.294-2.09-.65-1.06-.357-1.93-.634-1.95-.616-.02.02.5.27 1.15.554.65.285 1.8.797 2.56 1.135.75.34 1.43.62 1.5.63.07.01 3-.43 6.51-.97zm7.1-2.54c-.052-.063-.112-.273-.134-.467l-.04-.35.325.043c.18.023.38.094.44.156.17.165.06.48-.2.617-.27.14-.26.14-.38 0zm2.588-.307c-.13-.285-.107-.545.064-.715.208-.21.332-.19.56.08.263.312.248.482-.058.67-.334.208-.46.2-.566-.034zm2.42-.35c-.046-.13-.084-.317-.084-.414 0-.15.038-.18.246-.18.375 0 .63.16.606.38-.024.23-.278.45-.512.45-.126 0-.196-.07-.257-.24zm2.747 0c-.204-.1-.33-.37-.33-.712 0-.32.092-.36.53-.23.323.1.34.12.32.36-.024.29-.17.63-.283.66-.04.01-.148-.01-.237-.06zm2.475-.59c-.052-.033-.08-.19-.064-.39.02-.27.053-.337.183-.355.2-.028.63.328.63.522 0 .08-.03.145-.06.145s-.18.03-.34.066c-.15.04-.32.04-.37.01zm2.74-.32c-.112-.113-.12-.716-.012-.783.12-.075.432.162.572.432.117.22.116.24-.013.34-.17.12-.427.123-.547.01zm2.684-.227c-.206-.076-.215-.097-.17-.423.07-.528.28-.677.658-.47.172.09.195.46.048.75-.11.22-.233.25-.536.14zm-28.14 2.7c1.014-.493 1.872-.92 1.91-.953.036-.037-.313-.42-.776-.87-1.47-1.41-2.068-2.53-2.665-5-.41-1.703-.544-2.12-.916-2.858-.31-.61-.563-.94-.93-1.206-.34-.25-.816-.29-1.09-.1l-.168.12v10.91l.51.23c1.04.47 1.63.67 1.96.64.21-.02.94-.33 2.16-.93zm59.215-.173c.01-.11-.02-.17-.09-.17-.15 0-.22.107-.16.26.06.167.21.11.24-.096zm-68.7-.76c0-.06-.8-.39-.94-.39-.03 0-.05.04-.05.1 0 .05.16.15.36.22.42.133.62.16.62.07zm61.55-4.9c1.87-.27 5.64-.815 8.36-1.214 12.69-1.86 17.39-2.45 21.41-2.68.59-.04 1.1-.09 1.14-.11.05-.04.04-.15-.03-.34-.06-.16-.11-.34-.11-.4-.01-.25-.44-.46-1.17-.56-.39-.06-1.04-.17-1.45-.24-.69-.12-.87-.12-2.53-.01-3.35.23-5.37.3-5.68.21-.4-.12-.55-.32-.6-.77l-.04-.38h-.41c-1.26 0-12.26.73-15.45 1.03-3.57.33-3.81.42-3.98 1.55-.12.81-.29 1.36-.42 1.36s-.17-.13-.27-.86c-.09-.7-.11-.73-.35-.73-.29 0-.51.3-.7.95-.14.45-.24.66-.46.87-.26.26-.33.28-1.11.41-.46.07-1.18.17-1.61.22-.48.05-.78.12-.78.17 0 .13 1.42 1.61 1.67 1.74.23.12.68.24.94.25.09 0 1.69-.22 3.56-.48zM69 26.55c-.066-.04-.09-.19-.076-.435.02-.322.047-.375.2-.397.225-.03.543.18.543.36 0 .296-.446.61-.668.47zm3.1-.4c-.046-.13-.084-.354-.084-.494 0-.23.022-.254.216-.254.354 0 .692.15.692.308 0 .19-.438.68-.608.68-.085 0-.168-.09-.22-.24zm-10.69 2.14c0-.1-.944-.917-1.057-.917-.19 0-.027.24.412.6.436.364.643.464.643.317zm-.23-1.94c0-.086-.086-.115-.34-.115-.32 0-.41.053-.29.173.028.03.18.05.34.05.21 0 .29-.03.29-.11zm2.72-.3c.096-.097.096-.12.003-.153-.165-.06-.85.137-.89.258-.027.086.043.097.37.06.222-.028.454-.1.516-.162zm.994-.85c0-.13-.208-1.542-.27-1.825-.05-.245-.185-.215-.185.04 0 .116.06.583.15 1.04.08.45.15.83.15.844 0 .01.03.02.08.02.04 0 .07-.06.07-.13zm-6.213-.666c3.62-.372 4.82-.514 4.88-.577.05-.04.04-.23-.02-.482-.07-.345-.12-.427-.28-.466-.35-.09-3 .02-3.66.15-1.04.2-3.29.73-3.35.79-.02.02.03.21.12.41.14.29.21.36.36.36.11 0 .99-.09 1.97-.19zm-5.89-7.353c1.88-.14 3.45-.28 3.48-.3.12-.07.08-.84-.06-.95-.16-.14-2.32-.19-3.15-.07-1.3.19-4.32.86-4.51 1.01-.13.11-.12.16.07.39.2.26.02.26 4.18-.06zm28.55 23.19c0-.15.04-.5.08-.79.17-1.08-.34-2.37-1.41-3.57-.18-.2-.33-.41-.33-.45 0-.15.29-.06.68.21 1.01.71 2.03 2.58 1.87 3.44-.05.31-.65 1.37-.78 1.41-.06.02-.09-.06-.09-.24zm1.18-1c-.19-2.1-.43-2.84-1.36-4.15-.44-.61-.33-.67.26-.14.84.76 1.36 1.72 1.53 2.82.1.65.03 1.35-.17 1.8-.13.3-.19.22-.24-.32zM60.1 19.6c-.025-.025-.046-.376-.046-.78 0-1.3-.248-2.403-.77-3.417-.462-.897-1.042-1.48-2.138-2.146-.26-.16-.17-.27.22-.27.84 0 1.46.57 2.15 1.98.25.51.63 1.448.832 2.07.452 1.36.482 1.74.174 2.22-.204.31-.345.42-.43.34zm1.215-2.124c-.02-.034-.298-.69-.616-1.46-.62-1.49-1.04-2.246-1.69-3.006-.22-.26-.4-.51-.4-.555 0-.23 1 .38 1.35.82.37.466 1.13 1.896 1.33 2.507.14.42.19.74.19 1.16 0 .52-.07.71-.18.53z"/>
  <path fill="#707070" d="M65.4 41.16C57.65 38.875 51.193 37 51.053 37c-.14-.002-5.385.524-11.656 1.17-7.142.736-11.704 1.175-12.215 1.175-1.155 0-3.7.135-5.08.27-1.51.147-1.742.185-1.74.288 0 .047.58.523 1.29 1.06.807.61 1.37 1.093 1.51 1.296.532.77.42 1.74-.25 2.17-.21.13-.33.14-.923.11-1.15-.06-3.28-.79-8.75-2.97-3.77-1.51-3.85-1.53-6.06-1.6-1.96-.06-2.45-.23-2.55-.87-.04-.22 0-.32.27-.65.17-.22.31-.43.31-.47 0-.05-.66-.44-1.46-.89-2.36-1.3-3.42-2.06-3.85-2.74-.28-.44-.29-.83-.03-1.36.36-.73 1.22-1.08 2.63-1.08.88 0 1.73.2 3.15.76.56.22 1.31.49 1.65.61.59.21.64.22.81.11.1-.06.2-.19.22-.29.02-.1.16-1.43.31-2.97.35-3.67.62-5.08 1.14-6.17.33-.7 1.07-1.05 2.04-.98.65.05 1.14.27 1.6.74.55.56.78 1.17 1.34 3.57.35 1.53 1.13 3.17 2.04 4.31.7.88 1.8 1.49 2.67 1.49.23 0 1.14-.17 2.12-.41 2.58-.62 2.73-.65 7.7-1.56 7.47-1.36 10.03-1.75 13.28-2.01.82-.06 1.57-.13 1.66-.15.2-.04.31-.48.19-.75-.12-.25-2.6-3.53-4.53-5.99-2.44-3.1-4.7-6.02-8.03-10.38-5.96-7.79-5.62-7.3-5.8-8.32-.12-.7-.06-1.72.15-2.25C26.65.15 27.93-.4 29.3-.04c1.32.34 3.74 1.98 6.36 4.31 1.09.96 4.005 3.72 6.66 6.29 3.51 3.4 4.81 4.58 5.707 5.17.52.34.595.34 2.503-.06 3.14-.657 4.81-.69 6.03-.13.47.214.43.062.58 1.82.1 1.09.26 1.65.44 1.54.15-.09.19-1.357.06-1.9-.14-.63-.15-.98-.02-.94.1.033.2.2.63 1.135.19.405.34.623.5.716.285.17.285.23 0 .57-.25.31-.38.59-.38.85 0 .09-.032.29-.074.44-.14.5-.74.68-3.32 1.01-.908.12-1.22.21-1.22.34 0 .11.89 1.08 1.3 1.43.75.64.98.67 2.42.33 1.24-.3 2.166-.38 4.82-.44l2.22-.04.25.26c.132.15.3.41.352.59.13.39.49.91.63.91.16 0 .505-.3.586-.51.19-.49-.424-1.55-1.51-2.62-.337-.33-.594-.62-.57-.66.064-.11.56.15 1.05.55.503.41.97.92 1.436 1.57.15.22.3.4.32.4.024 0 .024-.2 0-.45-.056-.62-.387-1.2-1.22-2.13-.88-.98-.935-1.05-.784-1.05.21 0 .84.49 1.19.92.19.24.53.76.76 1.17.46.82 1.03 1.51 1.32 1.58.1.03 4.234-.28 9.183-.68 9.76-.79 9.77-.79 11.57-.48.77.13 1.05.21 1.28.37.74.51.41.47 3.57.47 1.58 0 3.07.03 3.31.07 1.1.18 2.3.95 2.38 1.52.06.4-.09.84-.43 1.3-.35.47-.8.83-2.16 1.75-1.15.77-1.99 1.13-5.07 2.18-3.53 1.2-5.48 1.77-10.8 3.15-1.23.32-2.31.63-2.4.69-.1.07-.19.22-.22.39-.09.5-.16.55-.31.23-.14-.29-.26-.35-.39-.18-.04.05-.09.53-.12 1.06-.05.93-.14 1.38-.23 1.11-.02-.06-.13-.5-.23-.98-.32-1.45-.26-1.32-.74-1.35-.5-.02-.7.12-.49.35.13.15.16.45.07.59-.03.05-.16.15-.29.24-.21.14-.25.23-.32.7-.05.32-.15.63-.26.77-.19.26-.68.52-1 .52-.31.01-.33.13-.05.28.18.1.39.13.78.12 1.75-.05 1.97-.04 2.38.09.58.19 3.1 1.43 3.1 1.53 0 .04-.16.17-.34.28-.21.12-.43.35-.55.55-.11.19-.3.49-.41.66-.11.17-.19.35-.17.39.02.05.35.32.73.61 1.19.92 1.56 1.24 1.81 1.61.23.34.25.42.28 1.09.02.58.01.74-.08.82-.12.09-1.97.62-2.17.61-.07 0-6.46-1.88-14.21-4.16zm16.066 2.718c-.027-.172-.068-.343-.09-.38-.073-.117-.257-.064-.257.078 0 .257.16.617.28.617.09 0 .1-.06.06-.315zm-2.393-2.67c0-.124-.6-.59-.712-.552-.17.057-.1.2.2.422.35.256.52.298.52.13zm-.43-2.048c.024-.06.067-.315.095-.568.044-.383.033-.46-.063-.46-.146 0-.187.108-.25.677-.044.38-.034.46.063.46.063 0 .134-.05.156-.11zm-2.36-.88c.88-.087 1.093-.135 1-.224-.122-.115-2.943-.354-3-.254-.023.036-.064.176-.093.312l-.053.246h.68c.374 0 1.033-.036 1.465-.08zM21.1 36.357c7.023-1.082 12.016-1.824 16.345-2.427 1.666-.234 3.643-.51 4.393-.613 3.013-.42 4.67-.91 5.02-1.485.104-.173.106-.23.015-.453-.203-.5-.98-1.57-1.256-1.74l-.272-.17-1.08.12c-2.087.24-5.05.73-13.298 2.21-5.47.98-8.217 1.5-9.204 1.74-1.365.34-3.52 1.02-5.902 1.86l-2.34.83-.65-.19c-.36-.11-1.39-.45-2.28-.76-2.72-.95-2.58-.86 1 .71 1.35.59 2.54 1.12 2.65 1.17.11.05.32.1.48.1.16 0 3.04-.42 6.4-.94zm7.068-2.825c-.12-.437-.106-.473.19-.473.315 0 .564.11.564.25 0 .18-.31.5-.494.5-.144 0-.197-.06-.26-.29zm2.72-.024c-.045-.085-.085-.255-.09-.375-.013-.49.446-.624.7-.206.183.3.17.352-.15.57-.31.208-.353.21-.46.012zm2.44-.28c-.04-.072-.093-.242-.123-.378-.066-.306.048-.364.482-.248.254.068.31.117.31.265 0 .185-.312.495-.5.495-.055 0-.13-.06-.17-.133zm2.533-.264c-.06-.094-.13-.298-.16-.453-.06-.34.05-.41.48-.31.33.08.37.19.25.63-.07.26-.11.31-.27.31-.11 0-.23-.07-.29-.17zm2.58-.547c-.06-.18-.05-.438.03-.563.09-.146.5.022.67.273.15.225.08.302-.33.368-.25.04-.32.025-.36-.078zm2.73-.312c-.07-.188-.05-.547.03-.6.21-.13.61.264.61.603 0 .167-.57.165-.63-.003zm2.65-.207c-.12-.09-.13-.13-.03-.472.12-.4.22-.466.55-.342.22.084.25.195.12.63-.06.24-.11.284-.29.284-.11 0-.27-.045-.34-.1zm-28.27 2.914c.92-.452 1.79-.865 1.92-.918.14-.053.25-.135.25-.183 0-.04-.37-.46-.84-.92-.97-.96-1.29-1.4-1.82-2.49-.32-.65-.46-1.1-.82-2.58-.36-1.47-.5-1.93-.81-2.56-.65-1.32-1.38-1.86-2.06-1.51l-.22.12V34.8l.66.286c1.07.457 1.63.64 1.87.6.12-.02.98-.404 1.9-.856zm59.43-.295c-.01-.124-.07-.208-.14-.208-.06 0-.12.08-.13.2-.02.17.01.21.14.21.14 0 .16-.04.14-.21zM6.33 33.77c.03-.092-.73-.41-.975-.41-.267 0-.103.183.32.358.43.177.607.19.65.05zm61.47-4.876c1.725-.248 5.49-.796 8.365-1.217 12.31-1.805 17.058-2.403 21.21-2.674 1.61-.104 1.5-.048 1.336-.69-.15-.573-.29-.643-1.8-.884-1.57-.26-1.83-.26-4.07-.12-3.33.22-4.62.27-4.92.2-.44-.11-.68-.39-.68-.8 0-.19-.02-.36-.05-.38-.02-.03-1.49.04-3.25.14-7.2.42-12.48.82-14.64 1.09-.97.12-1.16.17-1.43.35-.41.29-.48.41-.58 1.19-.1.78-.27 1.25-.39 1.12-.04-.04-.12-.39-.18-.77-.12-.79-.14-.84-.34-.84-.28 0-.6.39-.73.87-.15.58-.36.99-.59 1.14-.19.12-1.37.34-2.65.48-.41.05-.77.1-.79.12-.04.04.44.63 1.05 1.27.55.57 1.03.8 1.67.8.19 0 1.76-.2 3.49-.45zm1.18-2.403c-.073-.07-.06-.57.018-.69.146-.22.73.1.64.36-.114.32-.486.52-.655.35zm3.21-.24c-.04-.08-.085-.29-.1-.47l-.02-.33.286.02c.16.01.354.06.434.1.124.07.133.11.066.31-.074.22-.387.53-.526.53-.035 0-.1-.06-.14-.14zm-10.762 2c0-.13-.92-.88-1.06-.85-.203.04-.123.16.407.6.495.42.65.48.65.26zm-.184-1.87c.07-.11-.11-.21-.394-.21-.235 0-.455.16-.357.25.08.09.69.06.747-.03zm2.59-.22c.093-.03.17-.11.17-.18 0-.13-.197-.14-.63-.04-.35.09-.39.12-.327.27.038.1.11.11.334.07.16-.03.36-.08.46-.11zm1.105-.94c-.06-.73-.29-1.94-.38-1.97-.06-.02-.13-.02-.15 0-.04.04.23 1.73.32 2.05.05.18.22.12.2-.07zm-6.61-.6c1.27-.12 4.45-.47 4.98-.53l.33-.04-.05-.41c-.07-.67 0-.65-1.91-.61-1.8.04-1.96.06-4.34.64-.64.16-1.16.31-1.16.33 0 .03.07.21.15.4.15.34.16.35.48.35.18 0 .85-.05 1.49-.11zm-5.54-7.39c1.77-.13 3.29-.27 3.39-.3.15-.05.17-.11.17-.51 0-.24-.04-.47-.08-.5-.05-.02-.43-.08-.85-.13-1.32-.14-3.63.17-6.12.84-.9.24-1 .35-.65.73.17.19.23.21.55.17.19-.02 1.8-.15 3.57-.28zm28.59 23.04c.13-.82.14-1.41.02-1.87-.18-.67-.59-1.44-1.15-2.14-.27-.33-.5-.64-.5-.68 0-.15.48.11.89.48.8.73 1.55 2.12 1.56 2.89 0 .28-.06.5-.21.8-.44.86-.71 1.09-.62.53zm1.15-1.22c-.11-1.51-.36-2.31-1.11-3.46-.25-.39-.44-.73-.42-.75.02-.03.3.23.63.56.89.93 1.3 1.88 1.3 3.06 0 .57-.18 1.36-.3 1.36-.04 0-.09-.34-.12-.76zm-22.4-19.84c0-.73-.17-2.03-.35-2.64-.43-1.48-1.12-2.39-2.46-3.24l-.34-.21.44-.02c.56-.02.98.21 1.41.77.8 1.07 1.99 4.22 1.87 4.97-.05.26-.38.77-.51.77-.04 0-.07-.16-.07-.36zm1.05-2.11c-.09-.2-.3-.7-.46-1.12-.58-1.45-1.04-2.25-1.86-3.21l-.29-.33.22.06c.61.15 1.19.75 1.78 1.82.58 1.06.85 1.79.9 2.48.05.72-.07.85-.3.32z"/>
  <path fill="#4f4f4f" d="M79.3 45.243c-.103-.04-6.48-1.93-14.17-4.195l-13.982-4.12-11.7 1.208c-9.554.985-11.912 1.206-12.853 1.207-1.9.003-6.126.324-6.28.478-.082.09.043.2 1.246 1.11 1.72 1.3 1.96 1.62 1.89 2.49-.08 1.01-.78 1.36-2.1 1.05-1.41-.33-4.05-1.28-8.3-2.98-1.74-.7-3.27-1.26-3.59-1.33-.34-.07-1.23-.14-2.23-.18-1.77-.06-2.03-.11-2.36-.47-.15-.17-.2-.33-.18-.6.01-.06.15-.27.31-.46s.31-.38.31-.42c0-.04-.69-.46-1.53-.93C1.84 36.02.82 35.32.23 34.7c-.62-.665-.69-1.118-.27-1.787.3-.473.8-.743 1.66-.895 1.18-.21 2.044-.043 4.41.845 1.9.71 2.13.755 2.296.445.04-.077.2-1.38.346-2.896.308-3.07.41-3.846.69-4.94.29-1.13.53-1.68.88-1.98.73-.62 2.08-.614 2.91.02.72.546 1.04 1.24 1.48 3.194.42 1.86.89 3.03 1.73 4.29.83 1.24 1.77 1.96 2.82 2.15.47.08.54.07 1.97-.27 2.73-.66 3.43-.8 7.196-1.49 2.06-.38 4.365-.8 5.115-.94 2.965-.56 7.1-1.12 9.85-1.33.63-.05 1.1-.12 1.15-.18.054-.05.116-.198.14-.32.04-.2-.033-.34-.574-1.1-.79-1.097-2.31-3.08-4.73-6.17-4.56-5.814-12.56-16.29-12.8-16.78-.26-.51-.37-1.09-.37-1.897 0-1.34.35-2.04 1.27-2.49.47-.23.6-.26 1.17-.27.56-.01.73.03 1.26.24C31.5.84 33.9 2.61 36.9 5.4c1.27 1.18 1.93 1.8 5.68 5.41 3.258 3.124 3.55 3.402 4.387 4.12.83.71 1.5 1.15 1.745 1.15.11 0 .85-.138 1.64-.3.79-.16 1.795-.35 2.232-.42 1.03-.166 2.59-.17 3.28-.01.56.13 1.106.38 1.155.522.02.05.08.64.14 1.31.11 1.204.28 1.89.45 1.83.21-.07.27-1.55.09-2.144-.14-.463-.15-.81-.02-.77.05.02.24.37.42.783.23.55.4.82.62 1.02l.3.28-.29.4c-.25.33-.31.48-.35.89-.05.45-.08.51-.29.64-.43.27-1.2.45-2.47.6-1.52.18-1.82.26-1.82.46 0 .21 1.48 1.68 1.9 1.88.44.22.54.21 1.63-.06.5-.12 1.2-.26 1.55-.3.78-.09 4.73-.25 5.28-.21.48.04.77.28.97.81.22.58.46.92.67.92.22 0 .55-.3.62-.57.13-.53-.41-1.45-1.51-2.59-.67-.68-.64-.8.08-.32.53.35 1.34 1.19 1.74 1.78.36.55.52.56.45.02-.09-.74-.43-1.29-1.62-2.62-.27-.29-.44-.54-.39-.54.4 0 1.25.92 1.86 2.01.51.91 1.02 1.52 1.36 1.6.13.03 3.98-.24 9.45-.68 8.75-.7 9.27-.73 10-.65 1.16.14 2.33.37 2.51.5l.45.32.29.21 3.26.04 3.26.04.57.25c.98.43 1.51.93 1.51 1.43 0 .32-.31.93-.68 1.34-.29.33-2.05 1.61-2.83 2.06-.55.32-2.39 1.01-5 1.88-3.07 1.02-4.37 1.4-8.82 2.56-1.91.5-3.52.94-3.58.98-.06.04-.17.25-.23.47l-.12.41-.17-.29c-.34-.56-.55-.18-.55.98 0 .46-.04.88-.08.95-.09.14-.09.13-.35-1.02-.11-.5-.23-.97-.27-1.04-.13-.26-.84-.27-1.05-.01-.08.1-.08.13.03.21.08.06.13.2.13.37 0 .22-.04.29-.26.43-.28.17-.31.25-.37.86-.05.6-.5 1.05-1.15 1.15-.81.12-.04.55.84.46 1.09-.1 1.64-.08 2.23.11.69.21 3.03 1.37 3.03 1.5 0 .05-.06.11-.14.14-.33.11-1.35 1.52-1.26 1.76.02.05.46.42.98.81 1.09.84 1.69 1.46 1.76 1.81.02.14.03.53.02.88l-.03.64-1.06.29c-1.17.32-1.13.31-1.4.2zm2.173-1.475c-.082-.354-.245-.51-.353-.334-.065.106.045.59.168.74.054.067.107.073.172.02.07-.06.073-.162.013-.426zm-2.324-2.61c0-.093-.66-.525-.79-.525-.24 0-.11.27.23.51.27.184.38.223.45.16.05-.045.1-.11.1-.146zm-.39-2.493c.08-.5.04-.666-.17-.588-.16.06-.33 1.12-.19 1.202.15.09.26-.09.35-.62zm-2.17-.393c.65-.072.9-.152.79-.26-.06-.053-2.17-.255-2.69-.256l-.47-.002-.05.26c-.03.143-.03.295 0 .336.05.087 1.26.048 2.41-.078zm-56.28-1.765c8.48-1.31 14.41-2.185 19.55-2.884 3.83-.522 4.96-.738 6.12-1.174.56-.22.96-.55.96-.83 0-.28-.62-1.31-1.07-1.77l-.37-.39-.71.04c-1.54.1-6.84.98-17.18 2.86-6.26 1.14-7.21 1.38-11.94 3.06-1.12.4-2.12.72-2.24.72-.23 0-1.39-.37-3.77-1.21-1.45-.51-1.91-.63-1.39-.36.12.06 1.43.64 2.9 1.29 1.47.64 2.83 1.24 3.02 1.33.19.08.37.15.41.15.03 0 2.59-.39 5.68-.87zm7.94-2.822c-.04-.075-.09-.238-.1-.363-.03-.2 0-.23.18-.25.26-.032.51.104.51.276 0 .322-.46.585-.6.337zm2.64-.245c-.05-.08-.08-.244-.08-.363 0-.42.34-.534.6-.2.21.272.19.426-.07.58-.28.167-.37.164-.46-.017zm2.41-.36c-.05-.112-.07-.273-.06-.36.02-.125.06-.15.25-.13.49.06.62.264.34.543-.22.215-.44.193-.54-.052zm2.62-.128c-.19-.19-.27-.67-.13-.757.07-.043.61.066.68.136.06.07-.17.75-.27.79-.05.02-.18-.05-.28-.16zm2.59-.475c-.03-.028-.06-.182-.06-.342 0-.343.16-.387.48-.133.23.187.25.347.04.406l-.29.082c-.08.02-.16.015-.19-.013zm2.73-.3c-.09-.08-.07-.71.01-.71.14 0 .46.346.47.53.01.16-.02.192-.21.21-.13.014-.26 0-.29-.03zm2.64-.28c-.13-.093-.14-.15-.08-.44.06-.298.09-.335.3-.355.34-.034.43.112.31.522-.11.366-.29.457-.54.272zm-28.7 3.113c.7-.35 1.58-.77 1.94-.933.36-.162.66-.33.66-.375 0-.045-.34-.395-.75-.778-.95-.88-1.36-1.425-1.91-2.53-.38-.76-.49-1.11-.83-2.5-.42-1.696-.59-2.233-.97-2.982-.59-1.154-1.51-1.703-2.09-1.244l-.2.157V34.72l.17.115c.09.063.39.205.66.316 1.05.44 1.47.57 1.74.53.15-.01.85-.31 1.55-.67zm59.84-.477c0-.177-.04-.23-.17-.25-.15-.02-.17.01-.17.195 0 .255.06.335.22.304.07-.014.12-.105.12-.25zm-68.69-.775c-.03-.148-.93-.506-1.1-.44-.19.072.02.295.41.43.49.176.72.18.69.01zm59.89-4.607c1.04-.14 5.26-.76 9.36-1.35 12.92-1.89 17.21-2.44 20.98-2.7 2.03-.14 2.31-.17 2.28-.3-.23-.99-.39-1.16-1.2-1.28-.29-.04-.96-.14-1.49-.23-.94-.15-1.02-.15-2.54-.04-2.45.18-5.41.3-5.73.24-.45-.08-.66-.33-.66-.8v-.38h-.32c-.92 0-11.06.66-14.15.91-3.83.32-4.58.44-5.04.77-.39.28-.37.24-.53 1.23-.2 1.23-.35 1.33-.49.34-.13-.88-.13-.89-.4-.89-.33 0-.64.36-.75.87-.11.49-.34.92-.6 1.11-.14.11-.56.2-1.48.33-.71.1-1.42.2-1.59.21-.22.02-.3.06-.3.15 0 .16 1.13 1.45 1.5 1.71.16.11.49.25.72.3.24.05.44.1.46.1.01 0 .88-.11 1.93-.26zm2.79-2.76c-.1-.27-.02-.6.15-.6.41 0 .57.33.29.61-.2.2-.37.2-.45 0zm3.16-.26c-.09-.23-.1-.61-.02-.66.12-.06.67.15.69.26.03.15-.33.6-.48.6-.06 0-.15-.09-.19-.19zm-10.71 2.15c0-.16-1-1-1.14-.95-.21.09-.11.26.4.68.5.42.74.51.74.27zm-.23-1.92c0-.13-.06-.15-.36-.17-.28-.02-.37 0-.41.1-.07.17.11.27.46.24.24-.01.3-.05.3-.17zm2.65-.16c.12-.04.15-.29.05-.35-.1-.06-.81.11-.92.22-.19.18-.02.29.38.23.2-.02.42-.06.48-.09zm1.1-.88c0-.31-.31-2.05-.38-2.12-.06-.05-.11-.05-.17.02-.08.08-.06.3.08 1.09.09.55.18 1.03.21 1.06.06.11.26.08.26-.03zm-6.44-.68c4.27-.43 4.96-.52 5.07-.62.09-.09.09-.15 0-.54l-.11-.44-1.62-.02c-1.6-.02-1.64-.02-2.92.25-1.51.31-2.69.61-2.78.7-.09.1.31.86.45.86.07 0 .93-.08 1.91-.18zm-5.84-7.36c3.9-.3 3.71-.26 3.71-.82 0-.61-.26-.71-1.82-.71-1.11 0-2.03.12-3.72.49-1.74.38-2.44.59-2.47.73-.04.2.35.6.58.6.11 0 1.79-.12 3.73-.27zm28.74 22.14c.01-1.01-.01-1.11-.19-1.55-.28-.64-.61-1.18-1.1-1.76-.23-.27-.38-.5-.33-.51.15-.06.9.52 1.25.95.52.66 1.03 1.73 1.08 2.28.04.42.02.49-.28 1.07-.17.34-.34.62-.38.62-.03 0-.05-.48-.04-1.07zm1.16.17c-.03-.1-.06-.48-.09-.85-.08-1.21-.38-2.11-1.06-3.16-.2-.3-.35-.57-.33-.58.07-.08.68.56 1.03 1.09.52.78.71 1.44.71 2.41 0 .52-.04.84-.12 1.02-.12.26-.12.26-.17.08zm-22.48-20.7c0-2.39-.9-4.35-2.47-5.37-.27-.17-.49-.34-.49-.38 0-.1.51-.07.81.06.64.27 1.23 1.12 1.87 2.73.52 1.28.8 2.23.81 2.7.01.28-.03.42-.19.63-.11.15-.24.27-.28.27-.04 0-.07-.28-.07-.62zm1.2-1.53c-.03-.04-.25-.55-.49-1.13-.7-1.71-1.06-2.37-1.76-3.19-.18-.21-.33-.41-.33-.43 0-.11.24-.02.62.26.46.33.79.79 1.35 1.85.52 1.01.68 1.54.66 2.2-.02.3-.05.51-.07.47z"/>
  <path fill="#2f2f2f" d="M79.414 45.275c-.083-.02-.185-.063-.227-.094-.042-.03-6.365-1.91-14.053-4.17L51.157 36.9l-11.59 1.184c-9.826 1.004-11.852 1.19-13.297 1.23-1.795.045-4.254.214-5.314.364-.458.067-.637.123-.653.207-.014.075.454.478 1.293 1.114 1.358 1.03 1.646 1.33 1.794 1.9.12.45-.01 1.06-.285 1.32-.275.26-.787.37-1.33.28-1.31-.21-3.836-1.1-8.708-3.06-1.615-.65-3.15-1.24-3.41-1.3-.282-.07-1.163-.15-2.21-.19-1.892-.08-2.348-.17-2.615-.51-.234-.3-.193-.56.152-.98.168-.2.295-.42.283-.48-.01-.07-.685-.49-1.497-.94-2.25-1.25-3.167-1.9-3.863-2.74-.51-.61.01-1.72.98-2.09.324-.13.64-.17 1.373-.2 1.178-.05 1.652.06 3.614.81.757.29 1.548.57 1.758.63.37.11.388.11.584-.06.2-.18.203-.18.482-3.01.293-2.96.314-3.14.498-4.12.125-.66.517-2.01.676-2.31.294-.57.952-.91 1.782-.91.72 0 1.18.19 1.706.71.545.54.8 1.12 1.13 2.58.473 2.09.864 3.13 1.646 4.39.78 1.25 1.584 1.98 2.54 2.3.613.2 1.024.2 1.988-.04 2.473-.6 4.3-.99 6.577-1.4 1.41-.25 3.74-.68 5.19-.95 4.24-.78 7.87-1.29 10.51-1.48.69-.05 1.33-.12 1.42-.15.2-.08.31-.53.19-.79-.12-.27-2.63-3.58-5.08-6.7C34.7 15.47 26.76 5.08 26.51 4.58c-.47-.92-.51-2.65-.08-3.494.2-.39.582-.723 1.095-.953.368-.163.576-.203 1.074-.21.34 0 .66.03.72.074.05.043.27.14.48.214 1.1.4 3.11 1.78 5.14 3.52 1.43 1.23 3.73 3.39 7.88 7.4 3.31 3.2 4.15 3.96 5.14 4.65.55.39.74.4 2.24.08 2.39-.5 2.7-.54 4.05-.55 1.33 0 1.64.04 2.32.35.4.19.38.09.51 1.71.04.51.11 1.02.14 1.13.1.34.25.63.32.63.25 0 .33-1.66.1-2.37-.1-.31-.12-.46-.06-.52s.13.03.24.29c.48 1.12.57 1.27.82 1.48l.26.22-.28.36c-.15.2-.3.48-.32.63-.11.72-.15.8-.46.97-.4.23-1.09.38-2.31.52-1.31.15-1.85.27-1.88.42-.03.16.92 1.24 1.43 1.64.73.56.95.59 2.3.26 1.24-.3 2.19-.38 4.82-.44l2.25-.04.22.24c.12.13.28.41.36.62.15.43.51.91.68.91.06 0 .23-.11.37-.26.43-.44.34-.98-.32-1.91-.19-.26-.59-.72-.88-1.02-.29-.29-.52-.55-.5-.57.16-.16 1.69 1.24 2.19 2 .41.62.54.63.5.03-.05-.63-.39-1.27-1.14-2.12-.35-.39-.68-.77-.74-.85-.17-.23.02-.16.42.15.37.3.76.83 1.42 1.96.2.35.48.75.63.9.53.55-.31.57 9.65-.23 9.78-.79 9.94-.8 11.72-.49.93.17 1 .19 1.66.67.17.12.49.14 3.41.17 3.06.04 3.24.05 3.66.21.67.25 1.15.54 1.47.88.24.26.28.35.28.65-.01.73-.7 1.47-2.47 2.67-1.31.88-1.92 1.15-5.32 2.3-3.7 1.25-4.97 1.62-10.77 3.14-1.29.34-2.37.63-2.41.65-.04.02-.1.19-.15.38-.1.39-.16.42-.28.15-.05-.1-.14-.18-.21-.18-.24 0-.33.24-.34.98-.01.77-.09 1.26-.17 1.06-.03-.06-.12-.45-.21-.87s-.21-.87-.27-1c-.09-.23-.12-.24-.51-.24-.3 0-.44.03-.53.14-.16.17-.16.29-.01.34.07.03.11.14.11.27 0 .17-.07.28-.29.46-.26.21-.29.28-.33.66-.08.81-.44 1.21-1.16 1.31-.44.07-.5.19-.17.39.36.22.97.28 1.47.14.48-.14 1.19-.07 1.94.18.43.15 2.67 1.22 2.81 1.35.03.03-.11.17-.31.32-.21.15-.46.44-.6.68-.14.23-.31.5-.4.61-.09.11-.16.24-.16.28 0 .04.43.41.96.82 1.1.85 1.61 1.34 1.79 1.72.09.18.13.47.13.91 0 .76.05.71-.95.96-.38.1-.72.2-.76.23-.11.08-.51.14-.68.09zm2.105-1.332c-.03-.375-.15-.583-.34-.583-.15 0-.16.03-.11.312.06.416.18.612.33.58.09-.02.12-.097.11-.31zm-2.39-2.717c.01-.077-.12-.23-.34-.398-.4-.304-.52-.332-.6-.138-.04.096.03.21.27.418.34.295.61.344.65.118zm-.44-2.064c.04-.1.09-.39.12-.644.05-.456.05-.46-.14-.46-.21 0-.23.053-.33.698-.03.198-.03.41-.01.474.06.176.27.136.35-.068zm-1.79-.875c.8-.135.76-.33-.1-.412-1.7-.162-2.46-.198-2.55-.123-.12.097-.21.515-.14.627.05.09 2.07.02 2.78-.1zM19.36 36.69c8.884-1.372 14.685-2.23 20.165-2.986 4.8-.66 6.16-.95 7.01-1.49.508-.322.56-.53.27-1.09-.382-.736-.965-1.473-1.267-1.6-.296-.123-.77-.088-2.793.206-3.094.45-15.204 2.588-19.546 3.45-2.12.422-3.99.986-8.4 2.533l-1.35.475-1.49-.498c-.82-.273-2.09-.706-2.81-.963-.73-.255-1.38-.453-1.44-.44-.16.032.39.29 3.16 1.492 1.24.53 2.56 1.11 2.93 1.28.37.17.78.3.89.31.12 0 2.21-.31 4.66-.69zm8.87-3.154c-.104-.28-.056-.446.124-.42.527.074.586.147.372.454-.164.232-.4.217-.495-.034zm2.748-.046c-.173-.21-.18-.492-.02-.653.19-.19.352-.14.505.156.132.254.103.326-.192.48-.17.086-.23.09-.29.017zm2.333-.517c-.04-.17-.06-.328-.04-.35.02-.02.16-.008.32.03.35.083.43.324.16.51-.26.186-.35.148-.44-.19zm2.54-.174c-.06-.15-.11-.35-.11-.44 0-.15.03-.16.31-.13.17.02.33.06.35.08.03.02.02.19-.02.36-.05.25-.1.33-.24.35-.13.02-.19-.03-.28-.25zm2.65-.46c-.06-.16 0-.45.1-.48.05-.02.2.07.34.19l.26.22-.21.08c-.29.11-.42.1-.47-.03zm2.75-.25c-.03-.03-.05-.17-.05-.31 0-.3.13-.33.37-.08s.22.43-.05.43c-.11 0-.23-.02-.26-.05zM44 31.9c-.25-.094-.24-.075-.142-.47.093-.37.222-.44.478-.25.107.08.125.16.084.377-.067.35-.17.437-.413.346zm-30.15 3.77c.177-.063.82-.365 1.43-.67.606-.307 1.394-.686 1.748-.844.354-.157.69-.322.744-.365.076-.06-.115-.29-.842-1.03-1.085-1.09-1.28-1.36-1.833-2.53-.328-.69-.474-1.14-.788-2.43-.49-2.02-.78-2.77-1.37-3.58-.48-.65-1.19-.92-1.66-.63l-.25.16.02 5.55.02 5.55.68.29c.5.22 1.59.63 1.75.66l.33-.11zm61.208-1.128c0-.282-.172-.413-.35-.265-.108.09-.14.384-.053.472.028.02.13.05.227.05.15 0 .176-.04.176-.26zm-68.674-.76c0-.11-.115-.192-.45-.323-.588-.23-.82-.24-.786-.02.018.12.142.2.48.33.543.2.756.2.756 0zm63.75-5.158C88.28 25.966 93.138 25.33 97.142 25.1c1.794-.106 1.808-.11 1.756-.323-.157-.64-.217-.784-.41-.978-.204-.21-.32-.24-1.692-.46l-1.472-.24-1.44.08c-4.598.28-5.708.32-6 .25-.438-.12-.593-.33-.58-.77.008-.24-.022-.38-.09-.41-.054-.02-1.78.06-3.835.18-10.16.6-14.94 1.02-15.48 1.35-.49.3-.59.48-.7 1.26-.2 1.31-.34 1.4-.47.31-.09-.68-.18-.84-.46-.77-.33.08-.59.39-.73.89-.2.7-.39 1.03-.67 1.15-.24.1-1.83.36-2.8.45-.28.03-.53.08-.56.12-.06.1.23.47.97 1.25.77.81 1.12.96 2.06.91.33-.02 2.84-.37 5.57-.77zm-1.12-2.48c.025-.373.166-.444.44-.222.175.14.176.152.05.345-.084.128-.2.2-.323.2-.17 0-.19-.023-.16-.323zm3.214.038c-.106-.377-.126-.615-.054-.66.08-.05.687.087.687.155 0 .12-.25.493-.37.56-.19.103-.21.1-.26-.055zm-10.73 2.1c0-.164-.958-.983-1.15-.983-.165 0-.24.11-.16.25.113.2 1.105.94 1.208.9.056-.03.102-.11.102-.18zm-.19-1.93c0-.13-.058-.155-.41-.174-.418-.025-.562.056-.482.265.03.077.157.1.467.083.368-.02.425-.043.425-.173zm2.538-.14c.11-.052.19-.153.19-.24 0-.133-.046-.148-.398-.134-.22.01-.467.053-.55.098-.15.08-.202.302-.096.407.068.07.6-.015.854-.132zm1.11-.81c.07-.07-.088-1.466-.24-2.1-.04-.173-.29-.237-.376-.096-.05.083.236 1.84.343 2.105.076.19.152.22.273.1zm-5.24-.87l2.793-.302c.57-.062 1.08-.13 1.11-.155.15-.097.01-.984-.18-1.107-.2-.123-2.86-.065-3.71.08-1.27.22-3.57.788-3.61.89-.02.052.04.27.14.486l.18.392.75-.048c.41-.026 1.54-.132 2.5-.237zm-6.728-7.267c1.798-.14 3.307-.275 3.352-.303.12-.073.105-.99-.016-1.09-.17-.14-1.484-.26-2.273-.207-1.48.1-5.2.854-5.56 1.126-.15.12-.1.36.13.59.21.21.25.22.67.18l3.71-.29zm28.464 22.9c.025-.132.068-.464.092-.738.087-.97-.364-2.152-1.227-3.215-.43-.53-.478-.662-.178-.5.76.41 1.76 1.906 1.97 2.974.09.435.08.44-.23 1.078-.33.66-.52.838-.43.4zm1.147-1.172c-.13-1.44-.36-2.222-.99-3.258-.19-.316-.34-.59-.32-.607.08-.083.92.98 1.15 1.452.34.722.44 1.238.4 2.11-.05.952-.19 1.122-.25.303zM60.17 18.686c-.167-2.546-.856-4.047-2.338-5.1l-.587-.415.3-.02c.943-.07 1.868 1.29 2.773 4.09.354 1.09.4 1.53.207 1.88-.245.44-.3.37-.355-.43zm1.13-1.546c-.044-.056-.244-.513-.446-1.013-.54-1.337-1.038-2.276-1.55-2.916-.25-.31-.42-.58-.38-.59.128-.04.78.48 1.06.84.39.52 1.097 1.91 1.283 2.53.17.57.193 1.37.033 1.16z"/>
  <path d="M79.432 45.277c-.073-.02-.12-.058-.102-.086.018-.02-6.314-1.92-14.07-4.2l-14.103-4.15-11.44 1.18c-10.533 1.08-11.622 1.18-13.75 1.25-1.27.05-2.685.11-3.143.16-1.19.11-2.245.23-2.444.27-.385.09-.186.32 1.175 1.35 1.41 1.07 1.706 1.4 1.8 1.95.13.77-.234 1.38-.88 1.47-.918.14-3.223-.61-9.086-2.96-1.82-.72-3.54-1.37-3.83-1.43-.32-.07-1.21-.14-2.24-.17-1.48-.05-1.76-.08-2.06-.22-.61-.27-.68-.64-.22-1.2.16-.2.3-.42.3-.48 0-.07-.54-.42-1.49-.94-2.32-1.31-3.37-2.05-3.8-2.7-.13-.18-.23-.3-.23-.27-.01.04-.04 0-.07-.09-.08-.19-.01-.8.08-.74.03.02.06-.01.06-.08 0-.2.51-.7.89-.86.48-.2 1.53-.34 2.14-.28.77.09 1.43.28 3.16.94.88.34 1.69.62 1.8.62.25 0 .46-.11.52-.28.02-.07.18-1.46.34-3.09.3-3 .46-4.08.8-5.23.24-.82.41-1.16.74-1.45.32-.29.68-.39 1.33-.39.64 0 1.11.17 1.54.55.62.55.91 1.22 1.33 3.11.3 1.36.58 2.15 1.11 3.2.72 1.41 1.56 2.4 2.44 2.88.45.24 1.06.43 1.43.43.14 0 1.33-.25 2.65-.56 2.01-.47 7.17-1.46 12.48-2.39 2.58-.45 6.68-.98 8.45-1.09 1.26-.07 1.35-.09 1.48-.34.17-.33.14-.51-.21-1.01-.5-.74-2.49-3.34-4.83-6.33C35.93 16.98 27.24 5.66 26.67 4.8c-.35-.52-.506-1.296-.466-2.314.024-.636.07-.897.207-1.21.23-.52.73-.96 1.22-1.086.24-.06.34-.12.28-.158-.05-.034.23-.06.61-.06.46-.003.69.024.66.073-.02.04.02.076.09.076.22 0 1.23.47 1.94.9.86.52 2.51 1.76 3.66 2.74 1.47 1.27 3.65 3.31 8.11 7.62 3.57 3.45 5 4.68 5.57 4.79.19.04.82-.05 2.05-.3 2.35-.47 2.87-.53 4.09-.48 1.1.04 1.92.23 2.14.49.08.09.15.53.24 1.4.09.9.17 1.37.28 1.62.2.44.4.44.47 0 .1-.53.07-1.66-.05-2.05-.13-.43-.14-.51-.05-.45.04.03.18.32.32.67.17.41.35.72.55.91l.3.3-.26.34c-.2.27-.27.44-.31.77-.06.55-.1.63-.44.8-.43.22-.97.34-2.09.47-1.26.15-1.85.26-2.02.38-.12.09-.12.12-.02.3.2.36 1.4 1.53 1.82 1.77.52.3.72.3 1.86.02 1.32-.32 2.07-.39 4.7-.44 1.74-.03 2.4-.02 2.52.05.1.05.29.35.46.71.48 1.02.75 1.15 1.22.61.17-.19.23-.34.23-.54 0-.55-.56-1.47-1.5-2.46-.55-.59-.08-.27.65.43.35.34.8.84.99 1.13.4.59.58.65.62.19.02-.15-.01-.41-.05-.56-.04-.15-.07-.29-.06-.3.01-.01.17.18.35.43.43.59.74.78 1.25.77.22-.01 4.43-.33 9.36-.73 9.82-.79 9.1-.77 11.14-.42.67.11.93.19 1.17.36.74.52.4.48 3.73.48 3.38 0 3.51.02 4.44.51.29.15.62.38.74.52s.23.24.25.22c.08-.07.12.42.06.63-.04.12-.07.19-.07.15 0-.04-.09.1-.19.3-.27.55-.83 1.05-2.16 1.95-1.02.69-1.33.85-2.38 1.27-1.5.59-5.65 1.97-7.6 2.54-.8.23-3 .83-4.88 1.33-1.88.5-3.48.92-3.55.95-.07.03-.18.19-.25.36-.12.31-.12.31-.23.15-.16-.23-.38-.21-.52.06-.08.16-.12.45-.12 1 0 .9-.05.86-.29-.2-.22-1-.29-1.1-.73-1.1-.42 0-.79.18-.79.38 0 .09.06.17.12.2.23.08.13.44-.18.69-.27.21-.29.27-.33.69-.07.78-.41 1.14-1.21 1.25-.47.07-.49.27-.03.48.5.23.98.27 1.43.12.49-.16 1.07-.11 1.96.19.61.2 1.92.81 2.49 1.16l.25.15-.37.32c-.2.17-.46.5-.58.73-.12.22-.29.48-.37.57-.08.09-.13.21-.11.27.02.06.47.44 1 .85 1.06.82 1.58 1.31 1.75 1.64.08.16.11.41.09.91l-.02.69-.89.24c-.5.13-.87.26-.84.29.03.03 0 .06-.07.06s-.17.016-.22.03c-.06.018-.16.01-.24-.004zm2.16-1.29c-.032-.5-.135-.703-.36-.703-.25 0-.296.134-.187.54.11.415.208.534.41.505.134-.02.153-.07.136-.35zm-2.458-2.612c.173-.173.09-.34-.312-.616-.462-.32-.546-.34-.655-.14-.11.21-.117.2.307.53.41.32.515.36.66.21zm-.452-2.054c.103-.12.27-1.15.203-1.26-.058-.09-.393-.1-.45-.01-.072.12-.21 1.16-.166 1.27.05.14.3.15.41.01zm-1.863-.97c.88-.11 1.11-.37.41-.47-.61-.09-2.88-.26-2.98-.22-.12.05-.3.67-.23.79.06.11 1.61.06 2.78-.09zm-57.1-1.66c8.24-1.27 13.12-1.99 21.84-3.21 3.89-.54 5.45-1.08 5.45-1.87 0-.4-.84-1.71-1.3-2.04-.21-.15-.29-.16-1-.11-1.35.08-4.72.63-12.78 2.07-5.49.98-8.95 1.63-9.96 1.86-1.2.28-3.8 1.09-6.13 1.92-1.25.44-2.33.8-2.4.8-.18 0-1.92-.57-4.23-1.39-1.8-.64-2.44-.79-1.96-.46.12.08 1.63.77 3.37 1.52 1.74.76 3.31 1.45 3.5 1.54.19.09.41.16.5.17.09.01 2.37-.33 5.08-.75zm8.56-3.14c-.03-.06-.05-.19-.05-.27 0-.12.03-.14.17-.11.09.03.21.05.26.05.12 0 .12.25 0 .37-.13.13-.34.12-.4-.03zm2.68-.18c-.11-.19-.1-.41.01-.52.12-.12.18-.11.36.08.21.23.19.34-.07.48-.21.11-.23.11-.31-.03zm2.42-.35c-.04-.11-.08-.23-.08-.26 0-.11.33-.08.49.03.13.1.13.11-.03.27-.21.22-.3.21-.39-.03zm2.5-.23c-.14-.35-.1-.49.13-.48.34.01.4.08.31.4-.11.34-.33.39-.44.09zm2.65-.64c0-.27.13-.29.37-.04.14.16.15.19.04.23-.29.11-.42.06-.42-.18zm2.77-.05c-.07-.07-.06-.48.01-.48.1 0 .31.27.31.41 0 .13-.23.18-.33.08zm2.65-.23c-.12-.03-.13-.08-.09-.31.06-.35.09-.39.27-.39.19 0 .25.18.17.47-.08.25-.14.29-.36.23zM15.41 35c.868-.43 1.774-.863 2.014-.962.284-.116.435-.222.435-.304 0-.07-.39-.515-.88-.99-1.51-1.484-1.97-2.352-2.62-4.97-.56-2.223-.94-3.156-1.57-3.836-.46-.49-1.2-.665-1.6-.373l-.2.15-.02 5.532c-.02 4.565 0 5.545.08 5.615.11.096.98.47 1.71.734.8.29.87.274 2.63-.598zm59.684-.468c0-.284-.014-.304-.237-.326-.2-.02-.248.007-.29.172-.07.29.074.51.32.48.183-.02.203-.054.203-.326zm-68.648-.657c.12-.19-.03-.318-.62-.518-.555-.19-.77-.17-.77.07 0 .17.14.258.71.463.45.16.57.16.68-.016zm64.103-5.26c11.06-1.61 13.22-1.923 15.11-2.183 4.62-.635 8.65-1.094 11.02-1.25 2.5-.168 2.39-.142 2.25-.513-.05-.12-.12-.35-.16-.52-.14-.52-.38-.62-2.07-.88l-1.47-.24-1.82.12c-3.62.24-5.31.3-5.6.2-.37-.12-.52-.36-.49-.78l.02-.33-1.1.01c-2.88.03-14.87.88-17.3 1.23-.94.13-.99.15-1.33.44-.38.32-.38.34-.55 1.4-.05.32-.12.61-.16.63-.03.02-.06.01-.06-.02 0-.14-.16-1.13-.19-1.25-.06-.2-.24-.23-.57-.09-.34.13-.52.41-.67 1.05-.12.49-.34.83-.6.93-.26.1-1.82.35-2.64.43-.34.03-.66.08-.72.11-.16.1.01.35.85 1.24.75.8.86.87 1.62 1.06.28.07 1.14-.04 6.59-.83zm-1.43-2.207c-.03-.025-.05-.16-.05-.298 0-.197.03-.252.14-.252.21 0 .34.186.24.364-.09.16-.27.26-.34.186zm3.13-.367c-.04-.1-.08-.26-.08-.34 0-.14.03-.15.28-.1.15.03.29.07.31.08.01.02-.03.13-.1.25-.16.32-.34.37-.43.13zm-10.69 2.27c.01-.12-.12-.27-.53-.62-.58-.48-.77-.55-.9-.32-.1.18-.03.28.59.77.52.41.78.47.82.18zm-.21-1.85c.14-.26-.04-.38-.53-.35-.34.02-.43.05-.45.16-.06.29.04.36.47.36.34 0 .43-.03.5-.15zm2.43-.15c.32-.08.45-.32.27-.49-.1-.09-.19-.09-.55-.03-.48.09-.65.19-.65.38 0 .3.19.33.93.15zm1.19-.82c.09-.06.09-.2-.03-1.07-.08-.56-.17-1.09-.2-1.18-.08-.2-.41-.25-.48-.07-.06.14.3 2.16.41 2.29.1.12.14.12.29.03zm-6.96-.72c1.87-.18 5.39-.56 5.58-.6.13-.03.17-.09.17-.27 0-.4-.17-.9-.33-.99-.11-.05-.67-.07-1.75-.04-1.73.04-1.96.08-4.35.66-1.01.25-1.31.35-1.31.44 0 .07.08.3.19.53.22.48.1.46 1.78.29zm-5.14-7.42c1.88-.15 3.46-.3 3.51-.35.06-.05.09-.26.09-.56 0-.7-.08-.74-1.64-.77-1.37-.03-2.26.07-3.98.45-1.28.28-2.44.6-2.53.68-.1.09-.01.39.18.63.2.26.13.27 4.34-.07zm28.66 22.57c.2-1.27-.11-2.3-1.11-3.62-.21-.27-.34-.5-.3-.5.04 0 .31.23.58.52.38.39.6.7.9 1.31.53 1.07.57 1.4.24 2.08-.32.63-.41.69-.33.22zm1.06-1.29c-.07-.93-.22-1.45-.69-2.39-.43-.85-.35-.9.18-.11.36.54.57 1.1.68 1.78.08.51.03 1.39-.08 1.39-.03 0-.08-.3-.11-.67zM66.06 20.4c-.7-.806-.77-.92-.38-.624.15.116.423.42.6.672.61.87.57.86-.22-.05zm-5.89-2.007c-.028-.54-.11-1.24-.197-1.576-.08-.332-.137-.615-.125-.63.04-.033.476 1.204.61 1.715.152.59.15.96-.01 1.235-.074.122-.154.22-.18.22-.027 0-.07-.434-.095-.965zm1.05-1.5c-.04-.084-.26-.615-.498-1.18-.5-1.2-.84-1.835-1.32-2.45-.19-.25-.33-.465-.31-.484.067-.07.58.38.837.73.36.5 1.13 2.02 1.28 2.53.13.45.13 1.15 0 .85zm-1.74-1.46c-.35-.74-1.067-1.547-1.76-1.986-.38-.243-.34-.336.093-.22.47.13 1.085.815 1.51 1.69.197.404.342.75.323.767-.02.02-.098-.097-.17-.25z"/>
</svg>
