<svg xmlns="http://www.w3.org/2000/svg" xmlns:xlink="http://www.w3.org/1999/xlink" viewBox="0 0 300 300" preserveAspectRatio="xMidYMid meet">
  <defs>
    <linearGradient id="l" x1="727.055" x2="726.74" y1="133.203" y2="155.11" xlink:href="#a" gradientUnits="userSpaceOnUse" gradientTransform="matrix(5.33594 0 0 5.33594 -3554.567 -277.328)"/>
    <linearGradient id="a">
      <stop offset="0" stop-color="#fff"/>
      <stop offset="1" stop-color="#fff" stop-opacity="0"/>
    </linearGradient>
    <linearGradient id="k" x1="674.801" x2="673.446" y1="150.712" y2="147.375" gradientTransform="matrix(5.33594 0 0 5.33594 -3234.41 -267.99)" xlink:href="#b" gradientUnits="userSpaceOnUse"/>
    <linearGradient id="b">
      <stop offset="0" stop-color="#d45500"/>
      <stop offset="1" stop-color="#d45500" stop-opacity="0"/>
    </linearGradient>
    <linearGradient id="j" x1="665.8" x2="682.45" y1="111.437" y2="137.373" xlink:href="#c" gradientUnits="userSpaceOnUse" gradientTransform="matrix(5.3115 -.51006 .51006 5.3115 -3300.357 84.66)"/>
    <linearGradient id="c">
      <stop offset="0" stop-color="#fff"/>
      <stop offset="1" stop-color="#fff" stop-opacity="0"/>
    </linearGradient>
    <linearGradient id="i" x1="749.343" x2="762.16" y1="144.002" y2="142.732" xlink:href="#d" gradientUnits="userSpaceOnUse" gradientTransform="matrix(5.33594 0 0 5.33594 -3554.567 -266.656)"/>
    <linearGradient id="d">
      <stop offset="0" stop-color="#f60"/>
      <stop offset="1" stop-color="#d45500"/>
    </linearGradient>
    <linearGradient id="h" x1="707.486" x2="707.359" y1="888.339" y2="909.552" xlink:href="#e" gradientUnits="userSpaceOnUse" gradientTransform="matrix(5.33594 0 0 5.33594 -3554.567 -4281.213)"/>
    <linearGradient id="e">
      <stop offset="0" stop-color="#ff2a2a"/>
      <stop offset="1" stop-color="#d40000"/>
    </linearGradient>
    <linearGradient id="g" x1="675.085" x2="674.57" y1="126.297" y2="140.409" xlink:href="#f" gradientUnits="userSpaceOnUse" gradientTransform="matrix(5.33594 0 0 5.33594 -3232.91 -266.822)"/>
    <linearGradient id="f">
      <stop offset="0" stop-color="#00aad4"/>
      <stop offset="1" stop-color="#87decd" stop-opacity="0"/>
    </linearGradient>
  </defs>
  <g transform="matrix(.8306 0 0 .8306 -142.28 -289.088)">
    <circle cx="693.722" cy="156.432" r="1.641" transform="matrix(5.33594 0 0 5.33594 -3491.224 -272.28)" color="#000" overflow="visible"/>
    <path fill="#333" stroke="#000" stroke-width="5.336" d="M377.677 455.298c23.016 19.614 33.338 5.71 44.44-1.27l-4.248 38.294-36.878-2.97z" stroke-linecap="round" stroke-linejoin="round"/>
    <path fill="#f60" stroke="#000" stroke-width="5.336" d="M438.392 514.96l86.58-17.78c27.304-5.608-69.046-14.614-81.576-6.523l-105.357 22.99c-14.313 34.397 80.37 5.415 100.352 1.312z"/>
    <g stroke="#000" transform="matrix(4.81257 .08354 .28228 4.81578 -3424.45 -3856.248)">
      <path fill="#f60" stroke-width="1.109" d="M741.404 892.593l5.173 12.863 7.83.292 2.214-10.402z"/>
      <circle cx="781.542" cy="140.08" r="4.609" stroke-width="1.62" transform="matrix(-.6845 0 0 .68483 1285.694 810.46)" color="#000" overflow="visible" stroke-linecap="round" stroke-linejoin="round"/>
      <path fill="#008033" stroke-width="1.109" d="M745.086 906.108c.035 1.29 2.535.866 5.632.782 3.096-.084 5.616.203 5.58-1.088-.035-1.29-2.61-3.67-5.708-3.586-3.096.084-5.54 2.6-5.504 3.892z" color="#000" overflow="visible"/>
    </g>
    <path fill="#1a1a1a" stroke="#000" stroke-width="5.336" d="M344.527 447.625c-42.033 12.698-26.292 47.154 5.588 40.374 29.572-6.29 49.854-3.78 49.854-3.78s-20.92-47.024-55.443-36.595z" color="#000" overflow="visible"/>
    <path fill="url(#g)" stroke="#000" stroke-width="5.336" d="M363.193 445.214c-73.645 11.252-45.49 58.848 9.67 50.217 51.164-8.005 86.256-4.81 86.256-4.81s-32.186-55.145-95.927-45.406z" color="#000" overflow="visible"/>
    <path fill="url(#h)" stroke="#000" stroke-width="5.336" d="M202.736 501.922l11.926 9.51c42.537-7.28 92.695-55.59 133.917-64.87-18.944 2.202-53.966 44.688 10.492 34.864 38.135-5.813 60.738-29.37 60.738-29.37l52.755-8.865 13.81 115.21c-96.246 20.427-160.532-9.594-278.168-1.648-20.05-12.753-19.724-33.923-20.595-41.974.053-10.635 6.944-19.378 15.124-12.856z" color="#000" overflow="visible" stroke-linecap="round" stroke-linejoin="round"/>
    <path fill="#a00" d="M416.37 520.895l-58.528 24.18 34.017 17.34c30.26 1.003 59.654-.364 88.876-6.002l-64.365-35.518z" color="#000" overflow="visible"/>
    <path fill="url(#i)" stroke="#000" stroke-width="5.336" d="M472.565 443.19c-8.41 1.123-25.846 4.336-25.846 4.336-33.31 22.26-12.22 108.882 13.34 115.723 8.818-1.423 17.626-1.758 26.345-3.608 10.798-2.292 14.627-4.963 17.175-22.845 2.548-17.88-4.556-66.41-9.17-78.1-4.616-11.687-13.436-16.628-21.845-15.506z"/>
    <path fill="#803300" stroke="#000" stroke-width="2.668" d="M476.68 454.994c-23.36 2.623-14.588 94.806 10.893 92.838 7.523-.58 11.51-3.956 13.516-18.212 2.004-14.255-3.587-52.944-7.218-62.263-3.632-9.32-10.573-13.257-17.19-12.363z"/>
    <path fill="#fff" stroke="#000" stroke-width="5.336" d="M462.964 449.146c-2.057-3.227 2.362-19.412 9.432-21.56 7.07-2.148 36.632 129.718 41.14 125.83 4.51-3.887 4.357-9.578 4.595-14.42.238-4.844-53.11-86.623-55.166-89.85z"/>
    <circle cx="787.477" cy="140.207" r="1.705" transform="matrix(5.33594 0 0 -5.33594 -3706.505 1246.345)" color="#000" overflow="visible"/>
    <path fill="#f60" stroke="#000" stroke-width="5.336" d="M418.684 517.043l-29.83 74.138-45.144 1.685-12.773-59.955z"/>
    <circle cx="781.542" cy="140.08" r="4.609" stroke="#000" stroke-width="1.352" transform="translate(-2719.917 43.656) scale(3.94713)" color="#000" overflow="visible" stroke-linecap="round" stroke-linejoin="round"/>
    <path fill="#f60" stroke="#000" stroke-width="5.336" d="M397.453 594.94c-.203 7.44-14.62 4.993-32.475 4.506-17.855-.487-32.385 1.17-32.182-6.27.203-7.44 15.06-21.157 32.916-20.67 17.855.486 31.944 14.994 31.74 22.434z" color="#000" overflow="visible"/>
    <path fill="#803300" d="M414.37 520.562L337 534.57l59.528 30.347 17.842-44.355z"/>
    <path fill="#ff2a2a" stroke="#000" stroke-width="5.336" d="M189.58 535.956l-13.546 6.685c-9.268 4.575 14.952 8.755 17.9 8.302 2.948-.453 28.154-9.04 31.904-12.62 10.085-9.628-29.475-5.713-36.258-2.366z"/>
    <g fill="#fff" style="line-height:125%;-inkscape-font-specification:Ubuntu" font-size="5.947" font-family="Ubuntu" letter-spacing="0" word-spacing="0" opacity=".786">
      <path d="M231.367 516.968c1.16-.86 2.256-1.823 3.293-2.883 1.032-1.08 1.925-2.28 2.68-3.606l2.188-.787 4.797 19.326-3.083 1.106-3.904-15.728c-.215.3-.493.633-.836 1-.32.357-.687.722-1.1 1.093-.392.364-.818.73-1.28 1.1-.44.36-.877.688-1.31.985l-1.445-1.607M250.47 519.522c.216-.97.556-2.124 1.018-3.464.457-1.36.995-2.777 1.615-4.255.642-1.486 1.344-2.974 2.106-4.462.783-1.496 1.595-2.88 2.434-4.154l2.95-1.06 3.047 12.27 2.72-.977.526 2.118-2.72.977 1.226 4.936-2.984 1.073-1.225-4.936-10.277 3.692-.436-1.758m7.903-13.257c-.516.833-1.024 1.744-1.524 2.734-.484.962-.947 1.96-1.39 2.99-.442 1.028-.847 2.065-1.214 3.108-.345 1.035-.64 2.03-.883 2.99l7.294-2.62-2.284-9.203M275.444 516.2c.124.502.034 1.01-.272 1.525-.306.515-.8.895-1.486 1.14-.685.247-1.273.256-1.763.027-.49-.23-.797-.594-.922-1.096-.124-.502-.033-1.01.272-1.525.306-.514.8-.894 1.486-1.14.686-.247 1.273-.255 1.763-.026.492.23.8.594.924 1.096M276.933 506.766c-.803-3.235-.748-5.968.167-8.2.936-2.24 2.61-3.793 5.018-4.658 2.41-.865 4.505-.667 6.287.597 1.804 1.255 3.108 3.5 3.91 6.735.804 3.235.737 5.972-.2 8.212-.914 2.232-2.576 3.78-4.985 4.646-2.41.865-4.516.67-6.32-.585-1.782-1.263-3.074-3.512-3.877-6.747m12.134-4.36c-.263-1.06-.59-2.035-.98-2.928-.368-.9-.816-1.64-1.345-2.22-.507-.587-1.1-.982-1.775-1.184-.68-.222-1.44-.18-2.28.12-.84.302-1.495.77-1.964 1.404-.473.615-.798 1.34-.977 2.174-.156.825-.194 1.74-.113 2.743.103.996.286 2.024.55 3.084.262 1.058.577 2.038.945 2.94.39.89.84 1.63 1.346 2.22.53.578 1.134.978 1.814 1.2.677.202 1.435.153 2.275-.15.84-.3 1.496-.76 1.97-1.375.468-.634.78-1.364.936-2.19.177-.833.215-1.747.112-2.743-.08-1.004-.252-2.035-.515-3.095M296.055 503.146c.217-.968.556-2.123 1.018-3.463.457-1.36.996-2.778 1.616-4.256.64-1.486 1.343-2.973 2.105-4.462.784-1.496 1.595-2.88 2.435-4.155l2.95-1.06 3.046 12.27 2.72-.977.525 2.12-2.718.976 1.226 4.935-2.984 1.072-1.225-4.936-10.28 3.693-.435-1.757m7.903-13.257c-.515.833-1.023 1.744-1.524 2.734-.483.963-.946 1.96-1.388 2.99-.443 1.03-.847 2.065-1.214 3.108-.345 1.035-.64 2.032-.883 2.99l7.293-2.62-2.285-9.203"/>
    </g>
    <path fill="#e75d00" d="M441.216 534.57c2.24 5.582 4.417 11.474 7.17 15.506 3.824 5.6 8.047 9.118 11.84 10.34 7.63-1.19 15.124-1.75 22.344-3.003l-41.354-22.844z"/>
    <path fill="url(#j)" d="M380.648 446.795c-5.42-.128-11.435.078-17.41.99-21.36 3.264-29.944 7.906-35.883 16.558 8.574 1.592 14.312-.45 24.985-1.476 20.03-1.924 35.837-6.03 44.294-14.15-5.453-1.223-9.81-1.775-15.986-1.922z" color="#000" overflow="visible"/>
    <path fill="#f60" stroke="#000" stroke-width="5.336" d="M306.512 515.57l-96.775 37.555c-29.077 11.283 77.177 16.404 91.182 7.322l117.764-43.404c15.998-38.614-90.893-9.73-112.172-1.472z"/>
    <path fill="url(#k)" d="M411.368 502.053l-120.095 54.413.704 4.112c4.086-.736 7.28-1.716 9.004-2.835l116.058-42.85c1.467-8.28-.352-9.838-5.67-12.84z"/>
    <path fill="url(#l)" d="M394.75 499.752c-29.36-.437-74.59 12.337-87.64 18.1l-95.827 36.917c-6.72 2.967-1.95 3.542 3.002 4.563l194.973-57.747c-3.968-1.2-8.928-1.75-14.507-1.834z"/>
  </g>
</svg>
